<svg width="1564" height="294" viewBox="0 0 1564 294" fill="none" xmlns="http://www.w3.org/2000/svg">
<g filter="url(#filter0_d_511_903)">
<circle cx="178" cy="125" r="125" fill="#3180EE"/>
</g>
<path d="M29.8395 278.453C29.7732 277.833 29.4938 277.35 29.0014 277.004C28.5137 276.659 27.8793 276.486 27.098 276.486C26.5488 276.486 26.0777 276.569 25.6847 276.734C25.2917 276.9 24.991 277.125 24.7827 277.409C24.5743 277.693 24.4678 278.018 24.4631 278.382C24.4631 278.685 24.5317 278.948 24.669 279.17C24.8111 279.393 25.0028 279.582 25.2443 279.739C25.4858 279.89 25.7533 280.018 26.0469 280.122C26.3404 280.226 26.6364 280.314 26.9347 280.385L28.2983 280.726C28.8475 280.854 29.3755 281.027 29.8821 281.244C30.3935 281.462 30.8504 281.737 31.2528 282.068C31.66 282.4 31.982 282.8 32.2188 283.268C32.4555 283.737 32.5739 284.286 32.5739 284.916C32.5739 285.768 32.3561 286.519 31.9205 287.168C31.4848 287.812 30.8551 288.316 30.0312 288.68C29.2121 289.04 28.2202 289.22 27.0554 289.22C25.9238 289.22 24.9413 289.045 24.108 288.695C23.2794 288.344 22.6307 287.833 22.1619 287.161C21.6979 286.488 21.447 285.669 21.4091 284.703H24.0014C24.0393 285.21 24.1955 285.631 24.4702 285.967C24.7448 286.304 25.1023 286.554 25.5426 286.72C25.9877 286.886 26.4848 286.969 27.0341 286.969C27.607 286.969 28.1089 286.884 28.5398 286.713C28.9754 286.538 29.3163 286.296 29.5625 285.989C29.8087 285.676 29.9342 285.312 29.9389 284.895C29.9342 284.516 29.8229 284.204 29.6051 283.957C29.3873 283.706 29.0819 283.498 28.6889 283.332C28.3007 283.162 27.8461 283.01 27.3253 282.878L25.6705 282.452C24.4725 282.144 23.5256 281.678 22.8295 281.053C22.1383 280.423 21.7926 279.587 21.7926 278.545C21.7926 277.688 22.0246 276.938 22.4886 276.294C22.9574 275.65 23.5942 275.151 24.3991 274.795C25.2041 274.436 26.1155 274.256 27.1335 274.256C28.1657 274.256 29.0701 274.436 29.8466 274.795C30.6278 275.151 31.241 275.645 31.6861 276.28C32.1312 276.91 32.3608 277.634 32.375 278.453H29.8395ZM37.9485 289.22C37.2572 289.22 36.6346 289.097 36.0806 288.851C35.5314 288.6 35.0958 288.231 34.7738 287.743C34.4566 287.255 34.2979 286.654 34.2979 285.939C34.2979 285.323 34.4116 284.814 34.6388 284.412C34.8661 284.009 35.1763 283.688 35.5692 283.446C35.9622 283.205 36.4049 283.022 36.8974 282.899C37.3945 282.771 37.9083 282.679 38.4386 282.622C39.0778 282.556 39.5962 282.497 39.994 282.445C40.3917 282.388 40.6805 282.303 40.8604 282.189C41.0451 282.071 41.1374 281.888 41.1374 281.642V281.599C41.1374 281.064 40.9788 280.65 40.6616 280.357C40.3443 280.063 39.8874 279.916 39.2908 279.916C38.6611 279.916 38.1616 280.054 37.7923 280.328C37.4277 280.603 37.1815 280.927 37.0536 281.301L34.6531 280.96C34.8424 280.297 35.1549 279.743 35.5906 279.298C36.0262 278.848 36.5588 278.512 37.1886 278.29C37.8183 278.062 38.5143 277.949 39.2766 277.949C39.8022 277.949 40.3254 278.01 40.8462 278.134C41.3671 278.257 41.8429 278.46 42.2738 278.744C42.7047 279.024 43.0503 279.405 43.3107 279.888C43.5759 280.371 43.7085 280.974 43.7085 281.699V289H41.2369V287.501H41.1516C40.9954 287.804 40.7752 288.089 40.4911 288.354C40.2118 288.614 39.859 288.825 39.4329 288.986C39.0115 289.142 38.5167 289.22 37.9485 289.22ZM38.6161 287.331C39.1322 287.331 39.5797 287.229 39.9585 287.026C40.3372 286.817 40.6284 286.543 40.832 286.202C41.0404 285.861 41.1445 285.489 41.1445 285.087V283.801C41.064 283.867 40.9267 283.929 40.7326 283.986C40.5432 284.043 40.3301 284.092 40.0934 284.135C39.8567 284.178 39.6223 284.215 39.3903 284.249C39.1583 284.282 38.957 284.31 38.7866 284.334C38.4031 284.386 38.0598 284.471 37.7567 284.589C37.4537 284.708 37.2146 284.874 37.0394 285.087C36.8642 285.295 36.7766 285.565 36.7766 285.896C36.7766 286.37 36.9495 286.727 37.2951 286.969C37.6407 287.21 38.0811 287.331 38.6161 287.331ZM48.8647 274.455V289H46.2937V274.455H48.8647ZM56.3381 289.213C55.2443 289.213 54.2997 288.986 53.5043 288.531C52.7135 288.072 52.1051 287.423 51.679 286.585C51.2528 285.742 51.0398 284.75 51.0398 283.609C51.0398 282.487 51.2528 281.502 51.679 280.655C52.1098 279.803 52.7112 279.14 53.483 278.666C54.2547 278.188 55.1615 277.949 56.2031 277.949C56.8755 277.949 57.5099 278.058 58.1065 278.276C58.7079 278.489 59.2382 278.82 59.6974 279.27C60.1615 279.72 60.526 280.293 60.7912 280.989C61.0563 281.68 61.1889 282.504 61.1889 283.46V284.249H52.2472V282.516H58.7244C58.7197 282.023 58.6132 281.585 58.4048 281.202C58.1965 280.813 57.9053 280.508 57.5312 280.286C57.1619 280.063 56.7311 279.952 56.2386 279.952C55.7131 279.952 55.2514 280.08 54.8537 280.335C54.456 280.586 54.1458 280.918 53.9233 281.33C53.7055 281.737 53.5942 282.184 53.5895 282.672V284.185C53.5895 284.819 53.7055 285.364 53.9375 285.818C54.1695 286.268 54.4938 286.614 54.9105 286.855C55.3272 287.092 55.8149 287.21 56.3736 287.21C56.7476 287.21 57.0862 287.158 57.3892 287.054C57.6922 286.945 57.955 286.786 58.1776 286.578C58.4001 286.37 58.5682 286.112 58.6818 285.804L61.0824 286.074C60.9309 286.708 60.642 287.262 60.2159 287.736C59.7945 288.205 59.2547 288.569 58.5966 288.83C57.9384 289.085 57.1856 289.213 56.3381 289.213ZM71.9862 280.974L69.6424 281.23C69.5761 280.993 69.4601 280.771 69.2944 280.562C69.1334 280.354 68.9156 280.186 68.641 280.058C68.3664 279.93 68.0302 279.866 67.6325 279.866C67.0974 279.866 66.6476 279.982 66.283 280.214C65.9232 280.446 65.7456 280.747 65.7504 281.116C65.7456 281.434 65.8616 281.692 66.0984 281.891C66.3398 282.089 66.7376 282.253 67.2915 282.381L69.1523 282.778C70.1845 283.001 70.9516 283.354 71.4535 283.837C71.9601 284.32 72.2158 284.952 72.2205 285.733C72.2158 286.42 72.0146 287.026 71.6168 287.551C71.2238 288.072 70.677 288.479 69.9762 288.773C69.2754 289.066 68.4705 289.213 67.5614 289.213C66.2262 289.213 65.1514 288.934 64.337 288.375C63.5226 287.812 63.0373 287.028 62.881 286.024L65.3881 285.783C65.5018 286.275 65.7433 286.647 66.1126 286.898C66.4819 287.149 66.9625 287.274 67.5543 287.274C68.1651 287.274 68.6552 287.149 69.0245 286.898C69.3986 286.647 69.5856 286.337 69.5856 285.967C69.5856 285.655 69.4648 285.397 69.2234 285.193C68.9866 284.99 68.6173 284.833 68.1154 284.724L66.2546 284.334C65.2082 284.116 64.4341 283.749 63.9322 283.233C63.4303 282.712 63.1817 282.054 63.1864 281.259C63.1817 280.586 63.364 280.004 63.7333 279.511C64.1074 279.014 64.6258 278.631 65.2887 278.361C65.9563 278.086 66.7257 277.949 67.5969 277.949C68.8754 277.949 69.8815 278.221 70.6154 278.766C71.354 279.31 71.811 280.046 71.9862 280.974ZM79.4151 289V274.455H84.8697C85.9871 274.455 86.9246 274.663 87.6822 275.08C88.4445 275.496 89.0198 276.069 89.408 276.798C89.801 277.523 89.9975 278.347 89.9975 279.27C89.9975 280.203 89.801 281.031 89.408 281.756C89.015 282.48 88.435 283.051 87.668 283.467C86.9009 283.879 85.9563 284.085 84.8342 284.085H81.2191V281.919H84.479C85.1325 281.919 85.6675 281.805 86.0842 281.578C86.5008 281.351 86.8086 281.038 87.0075 280.641C87.2111 280.243 87.3129 279.786 87.3129 279.27C87.3129 278.754 87.2111 278.299 87.0075 277.906C86.8086 277.513 86.4985 277.208 86.0771 276.99C85.6604 276.768 85.123 276.656 84.4648 276.656H82.0501V289H79.4151ZM94.7436 274.455V289H92.1726V274.455H94.7436ZM100.527 289.22C99.8353 289.22 99.2127 289.097 98.6587 288.851C98.1095 288.6 97.6739 288.231 97.3519 287.743C97.0347 287.255 96.8761 286.654 96.8761 285.939C96.8761 285.323 96.9897 284.814 97.217 284.412C97.4442 284.009 97.7544 283.688 98.1474 283.446C98.5404 283.205 98.9831 283.022 99.4755 282.899C99.9727 282.771 100.486 282.679 101.017 282.622C101.656 282.556 102.174 282.497 102.572 282.445C102.97 282.388 103.259 282.303 103.439 282.189C103.623 282.071 103.716 281.888 103.716 281.642V281.599C103.716 281.064 103.557 280.65 103.24 280.357C102.922 280.063 102.466 279.916 101.869 279.916C101.239 279.916 100.74 280.054 100.37 280.328C100.006 280.603 99.7596 280.927 99.6317 281.301L97.2312 280.96C97.4206 280.297 97.7331 279.743 98.1687 279.298C98.6043 278.848 99.137 278.512 99.7667 278.29C100.396 278.062 101.092 277.949 101.855 277.949C102.38 277.949 102.904 278.01 103.424 278.134C103.945 278.257 104.421 278.46 104.852 278.744C105.283 279.024 105.628 279.405 105.889 279.888C106.154 280.371 106.287 280.974 106.287 281.699V289H103.815V287.501H103.73C103.574 287.804 103.353 288.089 103.069 288.354C102.79 288.614 102.437 288.825 102.011 288.986C101.59 289.142 101.095 289.22 100.527 289.22ZM101.194 287.331C101.71 287.331 102.158 287.229 102.537 287.026C102.915 286.817 103.207 286.543 103.41 286.202C103.618 285.861 103.723 285.489 103.723 285.087V283.801C103.642 283.867 103.505 283.929 103.311 283.986C103.121 284.043 102.908 284.092 102.672 284.135C102.435 284.178 102.2 284.215 101.968 284.249C101.736 284.282 101.535 284.31 101.365 284.334C100.981 284.386 100.638 284.471 100.335 284.589C100.032 284.708 99.7927 284.874 99.6175 285.087C99.4424 285.295 99.3548 285.565 99.3548 285.896C99.3548 286.37 99.5276 286.727 99.8732 286.969C100.219 287.21 100.659 287.331 101.194 287.331ZM114.319 278.091V280.08H108.048V278.091H114.319ZM109.596 275.477H112.167V285.719C112.167 286.064 112.219 286.33 112.324 286.514C112.432 286.694 112.574 286.817 112.75 286.884C112.925 286.95 113.119 286.983 113.332 286.983C113.493 286.983 113.64 286.971 113.772 286.947C113.91 286.924 114.014 286.902 114.085 286.884L114.518 288.893C114.381 288.941 114.184 288.993 113.929 289.05C113.678 289.107 113.37 289.14 113.005 289.149C112.361 289.168 111.781 289.071 111.265 288.858C110.749 288.64 110.34 288.304 110.037 287.849C109.738 287.395 109.592 286.827 109.596 286.145V275.477ZM121.182 289.213C120.088 289.213 119.143 288.986 118.348 288.531C117.557 288.072 116.949 287.423 116.523 286.585C116.097 285.742 115.884 284.75 115.884 283.609C115.884 282.487 116.097 281.502 116.523 280.655C116.954 279.803 117.555 279.14 118.327 278.666C119.098 278.188 120.005 277.949 121.047 277.949C121.719 277.949 122.354 278.058 122.95 278.276C123.552 278.489 124.082 278.82 124.541 279.27C125.005 279.72 125.37 280.293 125.635 280.989C125.9 281.68 126.033 282.504 126.033 283.46V284.249H117.091V282.516H123.568C123.563 282.023 123.457 281.585 123.249 281.202C123.04 280.813 122.749 280.508 122.375 280.286C122.006 280.063 121.575 279.952 121.082 279.952C120.557 279.952 120.095 280.08 119.697 280.335C119.3 280.586 118.99 280.918 118.767 281.33C118.549 281.737 118.438 282.184 118.433 282.672V284.185C118.433 284.819 118.549 285.364 118.781 285.818C119.013 286.268 119.338 286.614 119.754 286.855C120.171 287.092 120.659 287.21 121.217 287.21C121.591 287.21 121.93 287.158 122.233 287.054C122.536 286.945 122.799 286.786 123.021 286.578C123.244 286.37 123.412 286.112 123.526 285.804L125.926 286.074C125.775 286.708 125.486 287.262 125.06 287.736C124.638 288.205 124.098 288.569 123.44 288.83C122.782 289.085 122.029 289.213 121.182 289.213ZM131.347 289.22C130.656 289.22 130.033 289.097 129.479 288.851C128.93 288.6 128.494 288.231 128.172 287.743C127.855 287.255 127.696 286.654 127.696 285.939C127.696 285.323 127.81 284.814 128.037 284.412C128.265 284.009 128.575 283.688 128.968 283.446C129.361 283.205 129.803 283.022 130.296 282.899C130.793 282.771 131.307 282.679 131.837 282.622C132.476 282.556 132.995 282.497 133.392 282.445C133.79 282.388 134.079 282.303 134.259 282.189C134.444 282.071 134.536 281.888 134.536 281.642V281.599C134.536 281.064 134.377 280.65 134.06 280.357C133.743 280.063 133.286 279.916 132.689 279.916C132.06 279.916 131.56 280.054 131.191 280.328C130.826 280.603 130.58 280.927 130.452 281.301L128.051 280.96C128.241 280.297 128.553 279.743 128.989 279.298C129.425 278.848 129.957 278.512 130.587 278.29C131.217 278.062 131.913 277.949 132.675 277.949C133.201 277.949 133.724 278.01 134.245 278.134C134.766 278.257 135.241 278.46 135.672 278.744C136.103 279.024 136.449 279.405 136.709 279.888C136.974 280.371 137.107 280.974 137.107 281.699V289H134.635V287.501H134.55C134.394 287.804 134.174 288.089 133.89 288.354C133.61 288.614 133.257 288.825 132.831 288.986C132.41 289.142 131.915 289.22 131.347 289.22ZM132.015 287.331C132.531 287.331 132.978 287.229 133.357 287.026C133.736 286.817 134.027 286.543 134.23 286.202C134.439 285.861 134.543 285.489 134.543 285.087V283.801C134.462 283.867 134.325 283.929 134.131 283.986C133.942 284.043 133.729 284.092 133.492 284.135C133.255 284.178 133.021 284.215 132.789 284.249C132.557 284.282 132.355 284.31 132.185 284.334C131.801 284.386 131.458 284.471 131.155 284.589C130.852 284.708 130.613 284.874 130.438 285.087C130.263 285.295 130.175 285.565 130.175 285.896C130.175 286.37 130.348 286.727 130.694 286.969C131.039 287.21 131.48 287.331 132.015 287.331ZM146.645 284.412V278.091H149.216V289H146.723V287.061H146.61C146.364 287.672 145.959 288.171 145.395 288.56C144.837 288.948 144.148 289.142 143.328 289.142C142.614 289.142 141.981 288.983 141.432 288.666C140.888 288.344 140.462 287.878 140.154 287.267C139.846 286.652 139.692 285.908 139.692 285.037V278.091H142.263V284.639C142.263 285.33 142.453 285.88 142.831 286.287C143.21 286.694 143.707 286.898 144.323 286.898C144.702 286.898 145.069 286.805 145.424 286.621C145.779 286.436 146.07 286.161 146.297 285.797C146.529 285.428 146.645 284.966 146.645 284.412ZM160.482 280.974L158.138 281.23C158.072 280.993 157.956 280.771 157.79 280.562C157.629 280.354 157.412 280.186 157.137 280.058C156.862 279.93 156.526 279.866 156.129 279.866C155.594 279.866 155.144 279.982 154.779 280.214C154.419 280.446 154.242 280.747 154.246 281.116C154.242 281.434 154.358 281.692 154.594 281.891C154.836 282.089 155.234 282.253 155.788 282.381L157.648 282.778C158.681 283.001 159.448 283.354 159.95 283.837C160.456 284.32 160.712 284.952 160.717 285.733C160.712 286.42 160.511 287.026 160.113 287.551C159.72 288.072 159.173 288.479 158.472 288.773C157.772 289.066 156.967 289.213 156.058 289.213C154.722 289.213 153.647 288.934 152.833 288.375C152.019 287.812 151.533 287.028 151.377 286.024L153.884 285.783C153.998 286.275 154.239 286.647 154.609 286.898C154.978 287.149 155.459 287.274 156.05 287.274C156.661 287.274 157.151 287.149 157.521 286.898C157.895 286.647 158.082 286.337 158.082 285.967C158.082 285.655 157.961 285.397 157.719 285.193C157.483 284.99 157.113 284.833 156.612 284.724L154.751 284.334C153.704 284.116 152.93 283.749 152.428 283.233C151.926 282.712 151.678 282.054 151.683 281.259C151.678 280.586 151.86 280.004 152.229 279.511C152.603 279.014 153.122 278.631 153.785 278.361C154.452 278.086 155.222 277.949 156.093 277.949C157.371 277.949 158.378 278.221 159.112 278.766C159.85 279.31 160.307 280.046 160.482 280.974ZM167.911 289V274.455H170.546V280.612H177.286V274.455H179.928V289H177.286V282.821H170.546V289H167.911ZM187.439 289.213C186.374 289.213 185.45 288.979 184.669 288.51C183.888 288.041 183.282 287.385 182.851 286.543C182.425 285.7 182.212 284.715 182.212 283.588C182.212 282.461 182.425 281.474 182.851 280.626C183.282 279.779 183.888 279.121 184.669 278.652C185.45 278.183 186.374 277.949 187.439 277.949C188.504 277.949 189.428 278.183 190.209 278.652C190.99 279.121 191.594 279.779 192.02 280.626C192.451 281.474 192.666 282.461 192.666 283.588C192.666 284.715 192.451 285.7 192.02 286.543C191.594 287.385 190.99 288.041 190.209 288.51C189.428 288.979 188.504 289.213 187.439 289.213ZM187.453 287.153C188.031 287.153 188.514 286.995 188.902 286.678C189.29 286.356 189.579 285.925 189.768 285.385C189.963 284.845 190.06 284.244 190.06 283.581C190.06 282.913 189.963 282.31 189.768 281.77C189.579 281.225 189.29 280.792 188.902 280.47C188.514 280.148 188.031 279.987 187.453 279.987C186.861 279.987 186.369 280.148 185.976 280.47C185.588 280.792 185.296 281.225 185.102 281.77C184.913 282.31 184.818 282.913 184.818 283.581C184.818 284.244 184.913 284.845 185.102 285.385C185.296 285.925 185.588 286.356 185.976 286.678C186.369 286.995 186.861 287.153 187.453 287.153ZM197.419 274.455V289H194.848V274.455H197.419ZM204.112 289.192C203.254 289.192 202.487 288.972 201.81 288.531C201.133 288.091 200.598 287.452 200.205 286.614C199.812 285.776 199.616 284.758 199.616 283.56C199.616 282.348 199.815 281.325 200.212 280.491C200.615 279.653 201.157 279.021 201.839 278.595C202.521 278.164 203.281 277.949 204.119 277.949C204.758 277.949 205.283 278.058 205.695 278.276C206.107 278.489 206.434 278.747 206.675 279.05C206.917 279.348 207.104 279.63 207.237 279.895H207.343V274.455H209.921V289H207.393V287.281H207.237C207.104 287.546 206.912 287.828 206.661 288.126C206.41 288.42 206.079 288.671 205.667 288.879C205.255 289.088 204.737 289.192 204.112 289.192ZM204.829 287.082C205.373 287.082 205.837 286.936 206.221 286.642C206.604 286.344 206.896 285.929 207.094 285.399C207.293 284.869 207.393 284.251 207.393 283.545C207.393 282.84 207.293 282.227 207.094 281.706C206.9 281.185 206.612 280.78 206.228 280.491C205.849 280.203 205.383 280.058 204.829 280.058C204.256 280.058 203.778 280.207 203.394 280.506C203.011 280.804 202.722 281.216 202.528 281.741C202.334 282.267 202.237 282.868 202.237 283.545C202.237 284.227 202.334 284.836 202.528 285.371C202.727 285.901 203.018 286.32 203.401 286.628C203.79 286.931 204.265 287.082 204.829 287.082ZM212.661 289V278.091H215.232V289H212.661ZM213.953 276.543C213.546 276.543 213.196 276.408 212.902 276.138C212.609 275.863 212.462 275.534 212.462 275.151C212.462 274.762 212.609 274.433 212.902 274.163C213.196 273.889 213.546 273.751 213.953 273.751C214.365 273.751 214.716 273.889 215.005 274.163C215.298 274.433 215.445 274.762 215.445 275.151C215.445 275.534 215.298 275.863 215.005 276.138C214.716 276.408 214.365 276.543 213.953 276.543ZM220.447 282.608V289H217.876V278.091H220.333V279.945H220.461C220.712 279.334 221.112 278.848 221.661 278.489C222.215 278.129 222.899 277.949 223.714 277.949C224.467 277.949 225.122 278.11 225.681 278.432C226.245 278.754 226.68 279.22 226.988 279.831C227.3 280.442 227.454 281.183 227.45 282.054V289H224.879V282.452C224.879 281.723 224.689 281.152 224.31 280.74C223.936 280.328 223.418 280.122 222.755 280.122C222.305 280.122 221.905 280.222 221.555 280.42C221.209 280.615 220.937 280.896 220.738 281.266C220.544 281.635 220.447 282.082 220.447 282.608ZM234.808 293.318C233.884 293.318 233.091 293.193 232.428 292.942C231.765 292.696 231.233 292.364 230.83 291.947C230.428 291.531 230.148 291.069 229.992 290.562L232.308 290.001C232.412 290.214 232.563 290.425 232.762 290.634C232.961 290.847 233.228 291.022 233.565 291.159C233.906 291.301 234.334 291.372 234.85 291.372C235.579 291.372 236.183 291.195 236.661 290.839C237.139 290.489 237.379 289.911 237.379 289.107V287.04H237.251C237.118 287.305 236.924 287.577 236.668 287.857C236.417 288.136 236.084 288.37 235.667 288.56C235.255 288.749 234.737 288.844 234.112 288.844C233.273 288.844 232.513 288.647 231.832 288.254C231.155 287.857 230.615 287.265 230.212 286.479C229.815 285.688 229.616 284.698 229.616 283.51C229.616 282.312 229.815 281.301 230.212 280.477C230.615 279.649 231.157 279.021 231.839 278.595C232.521 278.164 233.281 277.949 234.119 277.949C234.758 277.949 235.283 278.058 235.695 278.276C236.112 278.489 236.443 278.747 236.69 279.05C236.936 279.348 237.123 279.63 237.251 279.895H237.393V278.091H239.928V289.178C239.928 290.11 239.706 290.882 239.261 291.493C238.816 292.104 238.207 292.561 237.435 292.864C236.664 293.167 235.788 293.318 234.808 293.318ZM234.829 286.827C235.373 286.827 235.837 286.694 236.221 286.429C236.604 286.164 236.896 285.783 237.094 285.286C237.293 284.788 237.393 284.192 237.393 283.496C237.393 282.809 237.293 282.208 237.094 281.692C236.9 281.176 236.612 280.776 236.228 280.491C235.849 280.203 235.383 280.058 234.829 280.058C234.256 280.058 233.778 280.207 233.394 280.506C233.011 280.804 232.722 281.214 232.528 281.734C232.334 282.25 232.237 282.838 232.237 283.496C232.237 284.163 232.334 284.748 232.528 285.25C232.727 285.747 233.018 286.135 233.401 286.415C233.79 286.689 234.265 286.827 234.829 286.827ZM246.643 274.455H249.619L253.178 280.889H253.32L256.878 274.455H259.854L254.562 283.574V289H251.935V283.574L246.643 274.455ZM264.333 289.213C263.268 289.213 262.345 288.979 261.564 288.51C260.782 288.041 260.176 287.385 259.745 286.543C259.319 285.7 259.106 284.715 259.106 283.588C259.106 282.461 259.319 281.474 259.745 280.626C260.176 279.779 260.782 279.121 261.564 278.652C262.345 278.183 263.268 277.949 264.333 277.949C265.399 277.949 266.322 278.183 267.103 278.652C267.885 279.121 268.488 279.779 268.914 280.626C269.345 281.474 269.561 282.461 269.561 283.588C269.561 284.715 269.345 285.7 268.914 286.543C268.488 287.385 267.885 288.041 267.103 288.51C266.322 288.979 265.399 289.213 264.333 289.213ZM264.348 287.153C264.925 287.153 265.408 286.995 265.797 286.678C266.185 286.356 266.474 285.925 266.663 285.385C266.857 284.845 266.954 284.244 266.954 283.581C266.954 282.913 266.857 282.31 266.663 281.77C266.474 281.225 266.185 280.792 265.797 280.47C265.408 280.148 264.925 279.987 264.348 279.987C263.756 279.987 263.263 280.148 262.87 280.47C262.482 280.792 262.191 281.225 261.997 281.77C261.807 282.31 261.713 282.913 261.713 283.581C261.713 284.244 261.807 284.845 261.997 285.385C262.191 285.925 262.482 286.356 262.87 286.678C263.263 286.995 263.756 287.153 264.348 287.153ZM278.696 284.412V278.091H281.267V289H278.774V287.061H278.661C278.414 287.672 278.009 288.171 277.446 288.56C276.887 288.948 276.198 289.142 275.379 289.142C274.664 289.142 274.032 288.983 273.483 288.666C272.938 288.344 272.512 287.878 272.205 287.267C271.897 286.652 271.743 285.908 271.743 285.037V278.091H274.314V284.639C274.314 285.33 274.503 285.88 274.882 286.287C275.261 286.694 275.758 286.898 276.374 286.898C276.752 286.898 277.119 286.805 277.474 286.621C277.83 286.436 278.121 286.161 278.348 285.797C278.58 285.428 278.696 284.966 278.696 284.412ZM288.985 289V274.455H294.554C295.605 274.455 296.478 274.62 297.174 274.952C297.875 275.278 298.398 275.726 298.744 276.294C299.094 276.862 299.27 277.506 299.27 278.226C299.27 278.818 299.156 279.324 298.929 279.746C298.701 280.162 298.396 280.501 298.012 280.761C297.629 281.022 297.2 281.209 296.727 281.322V281.464C297.243 281.493 297.738 281.652 298.211 281.94C298.69 282.224 299.08 282.627 299.383 283.148C299.686 283.669 299.838 284.298 299.838 285.037C299.838 285.79 299.655 286.467 299.291 287.068C298.926 287.665 298.377 288.136 297.643 288.482C296.909 288.827 295.986 289 294.873 289H288.985ZM291.62 286.798H294.454C295.411 286.798 296.1 286.616 296.521 286.251C296.947 285.882 297.16 285.409 297.16 284.831C297.16 284.4 297.054 284.012 296.841 283.666C296.627 283.316 296.324 283.041 295.931 282.842C295.538 282.639 295.07 282.537 294.525 282.537H291.62V286.798ZM291.62 280.641H294.227C294.681 280.641 295.091 280.558 295.456 280.392C295.82 280.222 296.107 279.982 296.315 279.675C296.528 279.362 296.635 278.993 296.635 278.567C296.635 278.003 296.436 277.539 296.038 277.175C295.645 276.81 295.06 276.628 294.284 276.628H291.62V280.641ZM305.156 289.22C304.464 289.22 303.842 289.097 303.288 288.851C302.738 288.6 302.303 288.231 301.981 287.743C301.664 287.255 301.505 286.654 301.505 285.939C301.505 285.323 301.619 284.814 301.846 284.412C302.073 284.009 302.383 283.688 302.776 283.446C303.169 283.205 303.612 283.022 304.104 282.899C304.602 282.771 305.115 282.679 305.646 282.622C306.285 282.556 306.803 282.497 307.201 282.445C307.599 282.388 307.888 282.303 308.067 282.189C308.252 282.071 308.344 281.888 308.344 281.642V281.599C308.344 281.064 308.186 280.65 307.869 280.357C307.551 280.063 307.094 279.916 306.498 279.916C305.868 279.916 305.369 280.054 304.999 280.328C304.635 280.603 304.388 280.927 304.261 281.301L301.86 280.96C302.049 280.297 302.362 279.743 302.798 279.298C303.233 278.848 303.766 278.512 304.396 278.29C305.025 278.062 305.721 277.949 306.484 277.949C307.009 277.949 307.532 278.01 308.053 278.134C308.574 278.257 309.05 278.46 309.481 278.744C309.912 279.024 310.257 279.405 310.518 279.888C310.783 280.371 310.915 280.974 310.915 281.699V289H308.444V287.501H308.359C308.202 287.804 307.982 288.089 307.698 288.354C307.419 288.614 307.066 288.825 306.64 288.986C306.219 289.142 305.724 289.22 305.156 289.22ZM305.823 287.331C306.339 287.331 306.787 287.229 307.165 287.026C307.544 286.817 307.835 286.543 308.039 286.202C308.247 285.861 308.352 285.489 308.352 285.087V283.801C308.271 283.867 308.134 283.929 307.94 283.986C307.75 284.043 307.537 284.092 307.3 284.135C307.064 284.178 306.829 284.215 306.597 284.249C306.365 284.282 306.164 284.31 305.994 284.334C305.61 284.386 305.267 284.471 304.964 284.589C304.661 284.708 304.422 284.874 304.246 285.087C304.071 285.295 303.984 285.565 303.984 285.896C303.984 286.37 304.156 286.727 304.502 286.969C304.848 287.21 305.288 287.331 305.823 287.331ZM318.259 289.213C317.17 289.213 316.235 288.974 315.454 288.496C314.677 288.018 314.078 287.357 313.657 286.514C313.24 285.667 313.032 284.691 313.032 283.588C313.032 282.48 313.245 281.502 313.671 280.655C314.097 279.803 314.699 279.14 315.475 278.666C316.256 278.188 317.18 277.949 318.245 277.949C319.13 277.949 319.914 278.112 320.596 278.439C321.282 278.761 321.829 279.218 322.237 279.81C322.644 280.397 322.876 281.083 322.933 281.869H320.475C320.376 281.344 320.139 280.906 319.765 280.555C319.396 280.2 318.901 280.023 318.281 280.023C317.755 280.023 317.293 280.165 316.896 280.449C316.498 280.728 316.188 281.131 315.965 281.656C315.747 282.182 315.638 282.812 315.638 283.545C315.638 284.289 315.747 284.928 315.965 285.463C316.183 285.993 316.488 286.403 316.881 286.692C317.279 286.976 317.746 287.118 318.281 287.118C318.659 287.118 318.998 287.047 319.296 286.905C319.599 286.758 319.853 286.547 320.056 286.273C320.26 285.998 320.399 285.664 320.475 285.271H322.933C322.871 286.043 322.644 286.727 322.251 287.324C321.858 287.916 321.323 288.38 320.646 288.716C319.969 289.047 319.173 289.213 318.259 289.213ZM327.387 285.577L327.38 282.473H327.792L331.713 278.091H334.717L329.895 283.46H329.362L327.387 285.577ZM325.044 289V274.455H327.615V289H325.044ZM331.89 289L328.339 284.036L330.072 282.224L334.966 289H331.89Z" fill="black"/>
<g filter="url(#filter1_d_511_903)">
<rect x="642" width="300" height="250" fill="#23A155"/>
</g>
<path d="M619.932 281.727C619.932 283.295 619.638 284.637 619.051 285.754C618.469 286.867 617.673 287.719 616.665 288.311C615.661 288.903 614.522 289.199 613.249 289.199C611.975 289.199 610.834 288.903 609.825 288.311C608.821 287.714 608.026 286.86 607.439 285.747C606.857 284.63 606.565 283.29 606.565 281.727C606.565 280.16 606.857 278.82 607.439 277.707C608.026 276.59 608.821 275.735 609.825 275.143C610.834 274.552 611.975 274.256 613.249 274.256C614.522 274.256 615.661 274.552 616.665 275.143C617.673 275.735 618.469 276.59 619.051 277.707C619.638 278.82 619.932 280.16 619.932 281.727ZM617.283 281.727C617.283 280.624 617.11 279.694 616.764 278.936C616.423 278.174 615.95 277.598 615.344 277.21C614.738 276.817 614.039 276.621 613.249 276.621C612.458 276.621 611.759 276.817 611.153 277.21C610.547 277.598 610.071 278.174 609.726 278.936C609.385 279.694 609.214 280.624 609.214 281.727C609.214 282.83 609.385 283.763 609.726 284.526C610.071 285.283 610.547 285.858 611.153 286.251C611.759 286.64 612.458 286.834 613.249 286.834C614.039 286.834 614.738 286.64 615.344 286.251C615.95 285.858 616.423 285.283 616.764 284.526C617.11 283.763 617.283 282.83 617.283 281.727ZM629.262 284.412V278.091H631.833V289H629.341V287.061H629.227C628.981 287.672 628.576 288.171 628.012 288.56C627.454 288.948 626.765 289.142 625.946 289.142C625.231 289.142 624.599 288.983 624.049 288.666C623.505 288.344 623.079 287.878 622.771 287.267C622.463 286.652 622.309 285.908 622.309 285.037V278.091H624.88V284.639C624.88 285.33 625.07 285.88 625.449 286.287C625.827 286.694 626.324 286.898 626.94 286.898C627.319 286.898 627.686 286.805 628.041 286.621C628.396 286.436 628.687 286.161 628.914 285.797C629.146 285.428 629.262 284.966 629.262 284.412ZM634.477 289V278.091H636.97V279.909H637.084C637.283 279.279 637.624 278.794 638.107 278.453C638.594 278.107 639.151 277.935 639.776 277.935C639.918 277.935 640.076 277.942 640.251 277.956C640.431 277.965 640.58 277.982 640.699 278.006V280.371C640.59 280.333 640.417 280.3 640.18 280.271C639.948 280.238 639.723 280.222 639.506 280.222C639.037 280.222 638.616 280.323 638.241 280.527C637.872 280.726 637.581 281.003 637.368 281.358C637.155 281.713 637.048 282.123 637.048 282.587V289H634.477ZM647.482 289V274.455H652.936C654.054 274.455 654.991 274.663 655.749 275.08C656.511 275.496 657.086 276.069 657.474 276.798C657.867 277.523 658.064 278.347 658.064 279.27C658.064 280.203 657.867 281.031 657.474 281.756C657.081 282.48 656.501 283.051 655.734 283.467C654.967 283.879 654.023 284.085 652.901 284.085H649.286V281.919H652.545C653.199 281.919 653.734 281.805 654.151 281.578C654.567 281.351 654.875 281.038 655.074 280.641C655.277 280.243 655.379 279.786 655.379 279.27C655.379 278.754 655.277 278.299 655.074 277.906C654.875 277.513 654.565 277.208 654.143 276.99C653.727 276.768 653.189 276.656 652.531 276.656H650.116V289H647.482ZM660.239 289V278.091H662.732V279.909H662.846C663.044 279.279 663.385 278.794 663.868 278.453C664.356 278.107 664.912 277.935 665.537 277.935C665.679 277.935 665.838 277.942 666.013 277.956C666.193 277.965 666.342 277.982 666.461 278.006V280.371C666.352 280.333 666.179 280.3 665.942 280.271C665.71 280.238 665.485 280.222 665.267 280.222C664.799 280.222 664.377 280.323 664.003 280.527C663.634 280.726 663.343 281.003 663.13 281.358C662.917 281.713 662.81 282.123 662.81 282.587V289H660.239ZM672.478 289.213C671.413 289.213 670.489 288.979 669.708 288.51C668.927 288.041 668.321 287.385 667.89 286.543C667.464 285.7 667.251 284.715 667.251 283.588C667.251 282.461 667.464 281.474 667.89 280.626C668.321 279.779 668.927 279.121 669.708 278.652C670.489 278.183 671.413 277.949 672.478 277.949C673.543 277.949 674.467 278.183 675.248 278.652C676.029 279.121 676.633 279.779 677.059 280.626C677.49 281.474 677.705 282.461 677.705 283.588C677.705 284.715 677.49 285.7 677.059 286.543C676.633 287.385 676.029 288.041 675.248 288.51C674.467 288.979 673.543 289.213 672.478 289.213ZM672.492 287.153C673.07 287.153 673.553 286.995 673.941 286.678C674.329 286.356 674.618 285.925 674.808 285.385C675.002 284.845 675.099 284.244 675.099 283.581C675.099 282.913 675.002 282.31 674.808 281.77C674.618 281.225 674.329 280.792 673.941 280.47C673.553 280.148 673.07 279.987 672.492 279.987C671.9 279.987 671.408 280.148 671.015 280.47C670.627 280.792 670.335 281.225 670.141 281.77C669.952 282.31 669.857 282.913 669.857 283.581C669.857 284.244 669.952 284.845 670.141 285.385C670.335 285.925 670.627 286.356 671.015 286.678C671.408 286.995 671.9 287.153 672.492 287.153ZM689.261 278.091L685.376 289H682.535L678.65 278.091H681.391L683.898 286.195H684.012L686.526 278.091H689.261ZM695.498 289.213C694.404 289.213 693.46 288.986 692.664 288.531C691.874 288.072 691.265 287.423 690.839 286.585C690.413 285.742 690.2 284.75 690.2 283.609C690.2 282.487 690.413 281.502 690.839 280.655C691.27 279.803 691.871 279.14 692.643 278.666C693.415 278.188 694.322 277.949 695.363 277.949C696.036 277.949 696.67 278.058 697.267 278.276C697.868 278.489 698.398 278.82 698.858 279.27C699.322 279.72 699.686 280.293 699.951 280.989C700.217 281.68 700.349 282.504 700.349 283.46V284.249H691.407V282.516H697.885C697.88 282.023 697.773 281.585 697.565 281.202C697.357 280.813 697.065 280.508 696.691 280.286C696.322 280.063 695.891 279.952 695.399 279.952C694.873 279.952 694.412 280.08 694.014 280.335C693.616 280.586 693.306 280.918 693.083 281.33C692.866 281.737 692.754 282.184 692.75 282.672V284.185C692.75 284.819 692.866 285.364 693.098 285.818C693.33 286.268 693.654 286.614 694.071 286.855C694.487 287.092 694.975 287.21 695.534 287.21C695.908 287.21 696.246 287.158 696.549 287.054C696.852 286.945 697.115 286.786 697.338 286.578C697.56 286.37 697.728 286.112 697.842 285.804L700.243 286.074C700.091 286.708 699.802 287.262 699.376 287.736C698.955 288.205 698.415 288.569 697.757 288.83C697.099 289.085 696.346 289.213 695.498 289.213ZM705.095 282.608V289H702.524V278.091H704.982V279.945H705.109C705.36 279.334 705.76 278.848 706.31 278.489C706.864 278.129 707.548 277.949 708.362 277.949C709.115 277.949 709.771 278.11 710.33 278.432C710.893 278.754 711.329 279.22 711.636 279.831C711.949 280.442 712.103 281.183 712.098 282.054V289H709.527V282.452C709.527 281.723 709.338 281.152 708.959 280.74C708.585 280.328 708.066 280.122 707.403 280.122C706.954 280.122 706.554 280.222 706.203 280.42C705.857 280.615 705.585 280.896 705.386 281.266C705.192 281.635 705.095 282.082 705.095 282.608ZM727.691 278.453C727.625 277.833 727.345 277.35 726.853 277.004C726.365 276.659 725.731 276.486 724.95 276.486C724.4 276.486 723.929 276.569 723.536 276.734C723.143 276.9 722.843 277.125 722.634 277.409C722.426 277.693 722.319 278.018 722.315 278.382C722.315 278.685 722.383 278.948 722.521 279.17C722.663 279.393 722.854 279.582 723.096 279.739C723.337 279.89 723.605 280.018 723.898 280.122C724.192 280.226 724.488 280.314 724.786 280.385L726.15 280.726C726.699 280.854 727.227 281.027 727.734 281.244C728.245 281.462 728.702 281.737 729.104 282.068C729.512 282.4 729.834 282.8 730.07 283.268C730.307 283.737 730.425 284.286 730.425 284.916C730.425 285.768 730.208 286.519 729.772 287.168C729.336 287.812 728.707 288.316 727.883 288.68C727.064 289.04 726.072 289.22 724.907 289.22C723.775 289.22 722.793 289.045 721.96 288.695C721.131 288.344 720.482 287.833 720.013 287.161C719.549 286.488 719.299 285.669 719.261 284.703H721.853C721.891 285.21 722.047 285.631 722.322 285.967C722.596 286.304 722.954 286.554 723.394 286.72C723.839 286.886 724.336 286.969 724.886 286.969C725.459 286.969 725.96 286.884 726.391 286.713C726.827 286.538 727.168 286.296 727.414 285.989C727.66 285.676 727.786 285.312 727.79 284.895C727.786 284.516 727.674 284.204 727.457 283.957C727.239 283.706 726.933 283.498 726.54 283.332C726.152 283.162 725.698 283.01 725.177 282.878L723.522 282.452C722.324 282.144 721.377 281.678 720.681 281.053C719.99 280.423 719.644 279.587 719.644 278.545C719.644 277.688 719.876 276.938 720.34 276.294C720.809 275.65 721.446 275.151 722.251 274.795C723.056 274.436 723.967 274.256 724.985 274.256C726.017 274.256 726.922 274.436 727.698 274.795C728.479 275.151 729.093 275.645 729.538 276.28C729.983 276.91 730.212 277.634 730.227 278.453H727.691ZM735.8 289.22C735.109 289.22 734.486 289.097 733.932 288.851C733.383 288.6 732.947 288.231 732.625 287.743C732.308 287.255 732.15 286.654 732.15 285.939C732.15 285.323 732.263 284.814 732.49 284.412C732.718 284.009 733.028 283.688 733.421 283.446C733.814 283.205 734.257 283.022 734.749 282.899C735.246 282.771 735.76 282.679 736.29 282.622C736.929 282.556 737.448 282.497 737.846 282.445C738.243 282.388 738.532 282.303 738.712 282.189C738.897 282.071 738.989 281.888 738.989 281.642V281.599C738.989 281.064 738.83 280.65 738.513 280.357C738.196 280.063 737.739 279.916 737.142 279.916C736.513 279.916 736.013 280.054 735.644 280.328C735.279 280.603 735.033 280.927 734.905 281.301L732.505 280.96C732.694 280.297 733.007 279.743 733.442 279.298C733.878 278.848 734.41 278.512 735.04 278.29C735.67 278.062 736.366 277.949 737.128 277.949C737.654 277.949 738.177 278.01 738.698 278.134C739.219 278.257 739.694 278.46 740.125 278.744C740.556 279.024 740.902 279.405 741.162 279.888C741.427 280.371 741.56 280.974 741.56 281.699V289H739.088V287.501H739.003C738.847 287.804 738.627 288.089 738.343 288.354C738.063 288.614 737.711 288.825 737.284 288.986C736.863 289.142 736.368 289.22 735.8 289.22ZM736.468 287.331C736.984 287.331 737.431 287.229 737.81 287.026C738.189 286.817 738.48 286.543 738.684 286.202C738.892 285.861 738.996 285.489 738.996 285.087V283.801C738.916 283.867 738.778 283.929 738.584 283.986C738.395 284.043 738.182 284.092 737.945 284.135C737.708 284.178 737.474 284.215 737.242 284.249C737.01 284.282 736.809 284.31 736.638 284.334C736.255 284.386 735.911 284.471 735.608 284.589C735.305 284.708 735.066 284.874 734.891 285.087C734.716 285.295 734.628 285.565 734.628 285.896C734.628 286.37 734.801 286.727 735.147 286.969C735.492 287.21 735.933 287.331 736.468 287.331ZM746.716 274.455V289H744.145V274.455H746.716ZM754.19 289.213C753.096 289.213 752.151 288.986 751.356 288.531C750.565 288.072 749.957 287.423 749.531 286.585C749.104 285.742 748.891 284.75 748.891 283.609C748.891 282.487 749.104 281.502 749.531 280.655C749.961 279.803 750.563 279.14 751.335 278.666C752.106 278.188 753.013 277.949 754.055 277.949C754.727 277.949 755.362 278.058 755.958 278.276C756.559 278.489 757.09 278.82 757.549 279.27C758.013 279.72 758.378 280.293 758.643 280.989C758.908 281.68 759.04 282.504 759.04 283.46V284.249H750.099V282.516H756.576C756.571 282.023 756.465 281.585 756.256 281.202C756.048 280.813 755.757 280.508 755.383 280.286C755.013 280.063 754.583 279.952 754.09 279.952C753.565 279.952 753.103 280.08 752.705 280.335C752.308 280.586 751.997 280.918 751.775 281.33C751.557 281.737 751.446 282.184 751.441 282.672V284.185C751.441 284.819 751.557 285.364 751.789 285.818C752.021 286.268 752.345 286.614 752.762 286.855C753.179 287.092 753.666 287.21 754.225 287.21C754.599 287.21 754.938 287.158 755.241 287.054C755.544 286.945 755.807 286.786 756.029 286.578C756.252 286.37 756.42 286.112 756.533 285.804L758.934 286.074C758.782 286.708 758.494 287.262 758.067 287.736C757.646 288.205 757.106 288.569 756.448 288.83C755.79 289.085 755.037 289.213 754.19 289.213ZM769.838 280.974L767.494 281.23C767.428 280.993 767.312 280.771 767.146 280.562C766.985 280.354 766.767 280.186 766.493 280.058C766.218 279.93 765.882 279.866 765.484 279.866C764.949 279.866 764.499 279.982 764.135 280.214C763.775 280.446 763.597 280.747 763.602 281.116C763.597 281.434 763.713 281.692 763.95 281.891C764.191 282.089 764.589 282.253 765.143 282.381L767.004 282.778C768.036 283.001 768.803 283.354 769.305 283.837C769.812 284.32 770.067 284.952 770.072 285.733C770.067 286.42 769.866 287.026 769.468 287.551C769.075 288.072 768.529 288.479 767.828 288.773C767.127 289.066 766.322 289.213 765.413 289.213C764.078 289.213 763.003 288.934 762.189 288.375C761.374 287.812 760.889 287.028 760.733 286.024L763.24 285.783C763.353 286.275 763.595 286.647 763.964 286.898C764.333 287.149 764.814 287.274 765.406 287.274C766.017 287.274 766.507 287.149 766.876 286.898C767.25 286.647 767.437 286.337 767.437 285.967C767.437 285.655 767.316 285.397 767.075 285.193C766.838 284.99 766.469 284.833 765.967 284.724L764.106 284.334C763.06 284.116 762.286 283.749 761.784 283.233C761.282 282.712 761.033 282.054 761.038 281.259C761.033 280.586 761.216 280.004 761.585 279.511C761.959 279.014 762.477 278.631 763.14 278.361C763.808 278.086 764.577 277.949 765.449 277.949C766.727 277.949 767.733 278.221 768.467 278.766C769.206 279.31 769.663 280.046 769.838 280.974ZM779.135 289H776.322L781.443 274.455H784.696L789.824 289H787.011L783.126 277.438H783.012L779.135 289ZM779.227 283.297H786.897V285.413H779.227V283.297ZM796.052 289.213C794.963 289.213 794.028 288.974 793.247 288.496C792.47 288.018 791.871 287.357 791.45 286.514C791.033 285.667 790.825 284.691 790.825 283.588C790.825 282.48 791.038 281.502 791.464 280.655C791.89 279.803 792.492 279.14 793.268 278.666C794.049 278.188 794.973 277.949 796.038 277.949C796.923 277.949 797.707 278.112 798.389 278.439C799.075 278.761 799.622 279.218 800.029 279.81C800.437 280.397 800.669 281.083 800.725 281.869H798.268C798.169 281.344 797.932 280.906 797.558 280.555C797.189 280.2 796.694 280.023 796.074 280.023C795.548 280.023 795.086 280.165 794.689 280.449C794.291 280.728 793.981 281.131 793.758 281.656C793.54 282.182 793.431 282.812 793.431 283.545C793.431 284.289 793.54 284.928 793.758 285.463C793.976 285.993 794.281 286.403 794.674 286.692C795.072 286.976 795.538 287.118 796.074 287.118C796.452 287.118 796.791 287.047 797.089 286.905C797.392 286.758 797.645 286.547 797.849 286.273C798.053 285.998 798.192 285.664 798.268 285.271H800.725C800.664 286.043 800.437 286.727 800.044 287.324C799.651 287.916 799.116 288.38 798.439 288.716C797.761 289.047 796.966 289.213 796.052 289.213ZM807.595 289.213C806.506 289.213 805.571 288.974 804.79 288.496C804.013 288.018 803.414 287.357 802.993 286.514C802.576 285.667 802.368 284.691 802.368 283.588C802.368 282.48 802.581 281.502 803.007 280.655C803.433 279.803 804.035 279.14 804.811 278.666C805.592 278.188 806.516 277.949 807.581 277.949C808.466 277.949 809.25 278.112 809.932 278.439C810.618 278.761 811.165 279.218 811.572 279.81C811.98 280.397 812.212 281.083 812.268 281.869H809.811C809.712 281.344 809.475 280.906 809.101 280.555C808.732 280.2 808.237 280.023 807.616 280.023C807.091 280.023 806.629 280.165 806.232 280.449C805.834 280.728 805.524 281.131 805.301 281.656C805.083 282.182 804.974 282.812 804.974 283.545C804.974 284.289 805.083 284.928 805.301 285.463C805.519 285.993 805.824 286.403 806.217 286.692C806.615 286.976 807.081 287.118 807.616 287.118C807.995 287.118 808.334 287.047 808.632 286.905C808.935 286.758 809.188 286.547 809.392 286.273C809.596 285.998 809.735 285.664 809.811 285.271H812.268C812.207 286.043 811.98 286.727 811.587 287.324C811.194 287.916 810.659 288.38 809.982 288.716C809.304 289.047 808.509 289.213 807.595 289.213ZM819.209 289.213C818.115 289.213 817.171 288.986 816.375 288.531C815.585 288.072 814.976 287.423 814.55 286.585C814.124 285.742 813.911 284.75 813.911 283.609C813.911 282.487 814.124 281.502 814.55 280.655C814.981 279.803 815.582 279.14 816.354 278.666C817.126 278.188 818.033 277.949 819.074 277.949C819.747 277.949 820.381 278.058 820.978 278.276C821.579 278.489 822.109 278.82 822.569 279.27C823.033 279.72 823.397 280.293 823.662 280.989C823.927 281.68 824.06 282.504 824.06 283.46V284.249H815.118V282.516H821.596C821.591 282.023 821.484 281.585 821.276 281.202C821.068 280.813 820.776 280.508 820.402 280.286C820.033 280.063 819.602 279.952 819.11 279.952C818.584 279.952 818.123 280.08 817.725 280.335C817.327 280.586 817.017 280.918 816.794 281.33C816.577 281.737 816.465 282.184 816.461 282.672V284.185C816.461 284.819 816.577 285.364 816.809 285.818C817.041 286.268 817.365 286.614 817.782 286.855C818.198 287.092 818.686 287.21 819.245 287.21C819.619 287.21 819.957 287.158 820.26 287.054C820.563 286.945 820.826 286.786 821.049 286.578C821.271 286.37 821.439 286.112 821.553 285.804L823.953 286.074C823.802 286.708 823.513 287.262 823.087 287.736C822.666 288.205 822.126 288.569 821.468 288.83C820.81 289.085 820.057 289.213 819.209 289.213ZM828.806 274.455V289H826.235V274.455H828.806ZM836.279 289.213C835.186 289.213 834.241 288.986 833.446 288.531C832.655 288.072 832.047 287.423 831.62 286.585C831.194 285.742 830.981 284.75 830.981 283.609C830.981 282.487 831.194 281.502 831.62 280.655C832.051 279.803 832.653 279.14 833.424 278.666C834.196 278.188 835.103 277.949 836.145 277.949C836.817 277.949 837.451 278.058 838.048 278.276C838.649 278.489 839.18 278.82 839.639 279.27C840.103 279.72 840.467 280.293 840.733 280.989C840.998 281.68 841.13 282.504 841.13 283.46V284.249H832.189V282.516H838.666C838.661 282.023 838.555 281.585 838.346 281.202C838.138 280.813 837.847 280.508 837.473 280.286C837.103 280.063 836.672 279.952 836.18 279.952C835.654 279.952 835.193 280.08 834.795 280.335C834.397 280.586 834.087 280.918 833.865 281.33C833.647 281.737 833.536 282.184 833.531 282.672V284.185C833.531 284.819 833.647 285.364 833.879 285.818C834.111 286.268 834.435 286.614 834.852 286.855C835.269 287.092 835.756 287.21 836.315 287.21C836.689 287.21 837.028 287.158 837.331 287.054C837.634 286.945 837.896 286.786 838.119 286.578C838.342 286.37 838.51 286.112 838.623 285.804L841.024 286.074C840.872 286.708 840.583 287.262 840.157 287.736C839.736 288.205 839.196 288.569 838.538 288.83C837.88 289.085 837.127 289.213 836.279 289.213ZM843.305 289V278.091H845.798V279.909H845.912C846.111 279.279 846.452 278.794 846.935 278.453C847.422 278.107 847.979 277.935 848.604 277.935C848.746 277.935 848.904 277.942 849.08 277.956C849.259 277.965 849.409 277.982 849.527 278.006V280.371C849.418 280.333 849.245 280.3 849.009 280.271C848.777 280.238 848.552 280.222 848.334 280.222C847.865 280.222 847.444 280.323 847.07 280.527C846.7 280.726 846.409 281.003 846.196 281.358C845.983 281.713 845.876 282.123 845.876 282.587V289H843.305ZM854.179 289.22C853.488 289.22 852.865 289.097 852.311 288.851C851.762 288.6 851.326 288.231 851.004 287.743C850.687 287.255 850.528 286.654 850.528 285.939C850.528 285.323 850.642 284.814 850.869 284.412C851.097 284.009 851.407 283.688 851.8 283.446C852.193 283.205 852.635 283.022 853.128 282.899C853.625 282.771 854.139 282.679 854.669 282.622C855.308 282.556 855.827 282.497 856.224 282.445C856.622 282.388 856.911 282.303 857.091 282.189C857.276 282.071 857.368 281.888 857.368 281.642V281.599C857.368 281.064 857.209 280.65 856.892 280.357C856.575 280.063 856.118 279.916 855.521 279.916C854.892 279.916 854.392 280.054 854.023 280.328C853.658 280.603 853.412 280.927 853.284 281.301L850.884 280.96C851.073 280.297 851.385 279.743 851.821 279.298C852.257 278.848 852.789 278.512 853.419 278.29C854.049 278.062 854.745 277.949 855.507 277.949C856.033 277.949 856.556 278.01 857.077 278.134C857.598 278.257 858.073 278.46 858.504 278.744C858.935 279.024 859.281 279.405 859.541 279.888C859.806 280.371 859.939 280.974 859.939 281.699V289H857.467V287.501H857.382C857.226 287.804 857.006 288.089 856.722 288.354C856.442 288.614 856.089 288.825 855.663 288.986C855.242 289.142 854.747 289.22 854.179 289.22ZM854.847 287.331C855.363 287.331 855.81 287.229 856.189 287.026C856.568 286.817 856.859 286.543 857.062 286.202C857.271 285.861 857.375 285.489 857.375 285.087V283.801C857.295 283.867 857.157 283.929 856.963 283.986C856.774 284.043 856.561 284.092 856.324 284.135C856.087 284.178 855.853 284.215 855.621 284.249C855.389 284.282 855.188 284.31 855.017 284.334C854.634 284.386 854.29 284.471 853.987 284.589C853.684 284.708 853.445 284.874 853.27 285.087C853.095 285.295 853.007 285.565 853.007 285.896C853.007 286.37 853.18 286.727 853.526 286.969C853.871 287.21 854.312 287.331 854.847 287.331ZM867.972 278.091V280.08H861.7V278.091H867.972ZM863.249 275.477H865.82V285.719C865.82 286.064 865.872 286.33 865.976 286.514C866.085 286.694 866.227 286.817 866.402 286.884C866.577 286.95 866.771 286.983 866.984 286.983C867.145 286.983 867.292 286.971 867.425 286.947C867.562 286.924 867.666 286.902 867.737 286.884L868.17 288.893C868.033 288.941 867.837 288.993 867.581 289.05C867.33 289.107 867.022 289.14 866.658 289.149C866.014 289.168 865.434 289.071 864.918 288.858C864.402 288.64 863.992 288.304 863.689 287.849C863.391 287.395 863.244 286.827 863.249 286.145V275.477ZM870.122 289V278.091H872.693V289H870.122ZM871.414 276.543C871.007 276.543 870.657 276.408 870.363 276.138C870.07 275.863 869.923 275.534 869.923 275.151C869.923 274.762 870.07 274.433 870.363 274.163C870.657 273.889 871.007 273.751 871.414 273.751C871.826 273.751 872.177 273.889 872.466 274.163C872.759 274.433 872.906 274.762 872.906 275.151C872.906 275.534 872.759 275.863 872.466 276.138C872.177 276.408 871.826 276.543 871.414 276.543ZM880.095 289.213C879.03 289.213 878.107 288.979 877.325 288.51C876.544 288.041 875.938 287.385 875.507 286.543C875.081 285.7 874.868 284.715 874.868 283.588C874.868 282.461 875.081 281.474 875.507 280.626C875.938 279.779 876.544 279.121 877.325 278.652C878.107 278.183 879.03 277.949 880.095 277.949C881.161 277.949 882.084 278.183 882.865 278.652C883.646 279.121 884.25 279.779 884.676 280.626C885.107 281.474 885.322 282.461 885.322 283.588C885.322 284.715 885.107 285.7 884.676 286.543C884.25 287.385 883.646 288.041 882.865 288.51C882.084 288.979 881.161 289.213 880.095 289.213ZM880.109 287.153C880.687 287.153 881.17 286.995 881.558 286.678C881.946 286.356 882.235 285.925 882.425 285.385C882.619 284.845 882.716 284.244 882.716 283.581C882.716 282.913 882.619 282.31 882.425 281.77C882.235 281.225 881.946 280.792 881.558 280.47C881.17 280.148 880.687 279.987 880.109 279.987C879.518 279.987 879.025 280.148 878.632 280.47C878.244 280.792 877.953 281.225 877.759 281.77C877.569 282.31 877.474 282.913 877.474 283.581C877.474 284.244 877.569 284.845 877.759 285.385C877.953 285.925 878.244 286.356 878.632 286.678C879.025 286.995 879.518 287.153 880.109 287.153ZM890.076 282.608V289H887.505V278.091H889.962V279.945H890.09C890.341 279.334 890.741 278.848 891.29 278.489C891.844 278.129 892.528 277.949 893.343 277.949C894.096 277.949 894.751 278.11 895.31 278.432C895.873 278.754 896.309 279.22 896.617 279.831C896.929 280.442 897.083 281.183 897.078 282.054V289H894.507V282.452C894.507 281.723 894.318 281.152 893.939 280.74C893.565 280.328 893.047 280.122 892.384 280.122C891.934 280.122 891.534 280.222 891.184 280.42C890.838 280.615 890.566 280.896 890.367 281.266C890.173 281.635 890.076 282.082 890.076 282.608ZM904.767 274.455H907.991L912.309 284.994H912.48L916.798 274.455H920.022V289H917.494V279.007H917.359L913.339 288.957H911.45L907.43 278.986H907.295V289H904.767V274.455ZM927.608 289.213C926.514 289.213 925.569 288.986 924.774 288.531C923.983 288.072 923.375 287.423 922.949 286.585C922.522 285.742 922.309 284.75 922.309 283.609C922.309 282.487 922.522 281.502 922.949 280.655C923.379 279.803 923.981 279.14 924.752 278.666C925.524 278.188 926.431 277.949 927.473 277.949C928.145 277.949 928.779 278.058 929.376 278.276C929.977 278.489 930.508 278.82 930.967 279.27C931.431 279.72 931.796 280.293 932.061 280.989C932.326 281.68 932.458 282.504 932.458 283.46V284.249H923.517V282.516H929.994C929.989 282.023 929.883 281.585 929.674 281.202C929.466 280.813 929.175 280.508 928.801 280.286C928.431 280.063 928.001 279.952 927.508 279.952C926.983 279.952 926.521 280.08 926.123 280.335C925.725 280.586 925.415 280.918 925.193 281.33C924.975 281.737 924.864 282.184 924.859 282.672V284.185C924.859 284.819 924.975 285.364 925.207 285.818C925.439 286.268 925.763 286.614 926.18 286.855C926.597 287.092 927.084 287.21 927.643 287.21C928.017 287.21 928.356 287.158 928.659 287.054C928.962 286.945 929.225 286.786 929.447 286.578C929.67 286.37 929.838 286.112 929.951 285.804L932.352 286.074C932.2 286.708 931.912 287.262 931.485 287.736C931.064 288.205 930.524 288.569 929.866 288.83C929.208 289.085 928.455 289.213 927.608 289.213ZM940.081 278.091V280.08H933.81V278.091H940.081ZM935.358 275.477H937.929V285.719C937.929 286.064 937.981 286.33 938.085 286.514C938.194 286.694 938.336 286.817 938.511 286.884C938.687 286.95 938.881 286.983 939.094 286.983C939.255 286.983 939.402 286.971 939.534 286.947C939.671 286.924 939.776 286.902 939.847 286.884L940.28 288.893C940.143 288.941 939.946 288.993 939.69 289.05C939.439 289.107 939.132 289.14 938.767 289.149C938.123 289.168 937.543 289.071 937.027 288.858C936.511 288.64 936.101 288.304 935.798 287.849C935.5 287.395 935.353 286.827 935.358 286.145V275.477ZM945.037 282.608V289H942.466V274.455H944.98V279.945H945.108C945.363 279.329 945.759 278.844 946.294 278.489C946.833 278.129 947.52 277.949 948.353 277.949C949.111 277.949 949.771 278.107 950.335 278.425C950.898 278.742 951.334 279.206 951.642 279.817C951.954 280.428 952.11 281.173 952.11 282.054V289H949.539V282.452C949.539 281.718 949.35 281.147 948.971 280.74C948.597 280.328 948.072 280.122 947.395 280.122C946.94 280.122 946.533 280.222 946.173 280.42C945.818 280.615 945.538 280.896 945.335 281.266C945.136 281.635 945.037 282.082 945.037 282.608ZM959.49 289.213C958.424 289.213 957.501 288.979 956.72 288.51C955.939 288.041 955.333 287.385 954.902 286.543C954.475 285.7 954.262 284.715 954.262 283.588C954.262 282.461 954.475 281.474 954.902 280.626C955.333 279.779 955.939 279.121 956.72 278.652C957.501 278.183 958.424 277.949 959.49 277.949C960.555 277.949 961.478 278.183 962.26 278.652C963.041 279.121 963.645 279.779 964.071 280.626C964.502 281.474 964.717 282.461 964.717 283.588C964.717 284.715 964.502 285.7 964.071 286.543C963.645 287.385 963.041 288.041 962.26 288.51C961.478 288.979 960.555 289.213 959.49 289.213ZM959.504 287.153C960.082 287.153 960.565 286.995 960.953 286.678C961.341 286.356 961.63 285.925 961.819 285.385C962.013 284.845 962.11 284.244 962.11 283.581C962.11 282.913 962.013 282.31 961.819 281.77C961.63 281.225 961.341 280.792 960.953 280.47C960.565 280.148 960.082 279.987 959.504 279.987C958.912 279.987 958.42 280.148 958.027 280.47C957.638 280.792 957.347 281.225 957.153 281.77C956.964 282.31 956.869 282.913 956.869 283.581C956.869 284.244 956.964 284.845 957.153 285.385C957.347 285.925 957.638 286.356 958.027 286.678C958.42 286.995 958.912 287.153 959.504 287.153ZM970.947 289.192C970.09 289.192 969.323 288.972 968.646 288.531C967.969 288.091 967.434 287.452 967.041 286.614C966.648 285.776 966.452 284.758 966.452 283.56C966.452 282.348 966.651 281.325 967.048 280.491C967.451 279.653 967.993 279.021 968.675 278.595C969.357 278.164 970.116 277.949 970.955 277.949C971.594 277.949 972.119 278.058 972.531 278.276C972.943 278.489 973.27 278.747 973.511 279.05C973.753 279.348 973.94 279.63 974.072 279.895H974.179V274.455H976.757V289H974.229V287.281H974.072C973.94 287.546 973.748 287.828 973.497 288.126C973.246 288.42 972.915 288.671 972.503 288.879C972.091 289.088 971.572 289.192 970.947 289.192ZM971.665 287.082C972.209 287.082 972.673 286.936 973.057 286.642C973.44 286.344 973.732 285.929 973.93 285.399C974.129 284.869 974.229 284.251 974.229 283.545C974.229 282.84 974.129 282.227 973.93 281.706C973.736 281.185 973.447 280.78 973.064 280.491C972.685 280.203 972.219 280.058 971.665 280.058C971.092 280.058 970.614 280.207 970.23 280.506C969.847 280.804 969.558 281.216 969.364 281.741C969.17 282.267 969.072 282.868 969.072 283.545C969.072 284.227 969.17 284.836 969.364 285.371C969.563 285.901 969.854 286.32 970.237 286.628C970.625 286.931 971.101 287.082 971.665 287.082Z" fill="black"/>
<g filter="url(#filter2_d_511_903)">
<circle cx="1396" cy="125" r="125" fill="#DF2424"/>
</g>
<path d="M1292.32 289H1287.4V274.455H1292.42C1293.87 274.455 1295.11 274.746 1296.15 275.328C1297.19 275.906 1297.99 276.737 1298.55 277.821C1299.1 278.905 1299.38 280.203 1299.38 281.713C1299.38 283.228 1299.1 284.53 1298.54 285.619C1297.98 286.708 1297.17 287.544 1296.12 288.126C1295.07 288.709 1293.8 289 1292.32 289ZM1290.03 286.72H1292.2C1293.21 286.72 1294.06 286.536 1294.73 286.166C1295.41 285.792 1295.92 285.236 1296.26 284.497C1296.6 283.754 1296.77 282.826 1296.77 281.713C1296.77 280.6 1296.6 279.677 1296.26 278.943C1295.92 278.205 1295.41 277.653 1294.75 277.288C1294.08 276.919 1293.26 276.734 1292.27 276.734H1290.03V286.72ZM1306.53 289.213C1305.47 289.213 1304.54 288.979 1303.76 288.51C1302.98 288.041 1302.38 287.385 1301.94 286.543C1301.52 285.7 1301.31 284.715 1301.31 283.588C1301.31 282.461 1301.52 281.474 1301.94 280.626C1302.38 279.779 1302.98 279.121 1303.76 278.652C1304.54 278.183 1305.47 277.949 1306.53 277.949C1307.6 277.949 1308.52 278.183 1309.3 278.652C1310.08 279.121 1310.69 279.779 1311.11 280.626C1311.54 281.474 1311.76 282.461 1311.76 283.588C1311.76 284.715 1311.54 285.7 1311.11 286.543C1310.69 287.385 1310.08 288.041 1309.3 288.51C1308.52 288.979 1307.6 289.213 1306.53 289.213ZM1306.55 287.153C1307.12 287.153 1307.61 286.995 1308 286.678C1308.38 286.356 1308.67 285.925 1308.86 285.385C1309.06 284.845 1309.15 284.244 1309.15 283.581C1309.15 282.913 1309.06 282.31 1308.86 281.77C1308.67 281.225 1308.38 280.792 1308 280.47C1307.61 280.148 1307.12 279.987 1306.55 279.987C1305.96 279.987 1305.46 280.148 1305.07 280.47C1304.68 280.792 1304.39 281.225 1304.2 281.77C1304.01 282.31 1303.91 282.913 1303.91 283.581C1303.91 284.244 1304.01 284.845 1304.2 285.385C1304.39 285.925 1304.68 286.356 1305.07 286.678C1305.46 286.995 1305.96 287.153 1306.55 287.153ZM1320.9 284.412V278.091H1323.47V289H1320.97V287.061H1320.86C1320.61 287.672 1320.21 288.171 1319.65 288.56C1319.09 288.948 1318.4 289.142 1317.58 289.142C1316.86 289.142 1316.23 288.983 1315.68 288.666C1315.14 288.344 1314.71 287.878 1314.4 287.267C1314.1 286.652 1313.94 285.908 1313.94 285.037V278.091H1316.51V284.639C1316.51 285.33 1316.7 285.88 1317.08 286.287C1317.46 286.694 1317.96 286.898 1318.57 286.898C1318.95 286.898 1319.32 286.805 1319.67 286.621C1320.03 286.436 1320.32 286.161 1320.55 285.797C1320.78 285.428 1320.9 284.966 1320.9 284.412ZM1326.22 289V274.455H1328.79V279.895H1328.9C1329.03 279.63 1329.22 279.348 1329.46 279.05C1329.7 278.747 1330.03 278.489 1330.44 278.276C1330.85 278.058 1331.38 277.949 1332.02 277.949C1332.86 277.949 1333.62 278.164 1334.3 278.595C1334.98 279.021 1335.52 279.653 1335.92 280.491C1336.32 281.325 1336.52 282.348 1336.52 283.56C1336.52 284.758 1336.33 285.776 1335.93 286.614C1335.54 287.452 1335 288.091 1334.33 288.531C1333.65 288.972 1332.88 289.192 1332.03 289.192C1331.4 289.192 1330.88 289.088 1330.47 288.879C1330.06 288.671 1329.73 288.42 1329.48 288.126C1329.23 287.828 1329.04 287.546 1328.9 287.281H1328.75V289H1326.22ZM1328.75 283.545C1328.75 284.251 1328.84 284.869 1329.04 285.399C1329.25 285.929 1329.54 286.344 1329.92 286.642C1330.3 286.936 1330.76 287.082 1331.31 287.082C1331.88 287.082 1332.35 286.931 1332.74 286.628C1333.12 286.32 1333.41 285.901 1333.6 285.371C1333.8 284.836 1333.9 284.227 1333.9 283.545C1333.9 282.868 1333.8 282.267 1333.61 281.741C1333.42 281.216 1333.13 280.804 1332.74 280.506C1332.36 280.207 1331.88 280.058 1331.31 280.058C1330.76 280.058 1330.29 280.203 1329.91 280.491C1329.53 280.78 1329.24 281.185 1329.04 281.706C1328.84 282.227 1328.75 282.84 1328.75 283.545ZM1341.28 274.455V289H1338.71V274.455H1341.28ZM1343.92 289V278.091H1346.49V289H1343.92ZM1345.22 276.543C1344.81 276.543 1344.46 276.408 1344.16 276.138C1343.87 275.863 1343.72 275.534 1343.72 275.151C1343.72 274.762 1343.87 274.433 1344.16 274.163C1344.46 273.889 1344.81 273.751 1345.22 273.751C1345.63 273.751 1345.98 273.889 1346.27 274.163C1346.56 274.433 1346.71 274.762 1346.71 275.151C1346.71 275.534 1346.56 275.863 1346.27 276.138C1345.98 276.408 1345.63 276.543 1345.22 276.543ZM1351.71 282.608V289H1349.14V278.091H1351.59V279.945H1351.72C1351.97 279.334 1352.37 278.848 1352.92 278.489C1353.48 278.129 1354.16 277.949 1354.98 277.949C1355.73 277.949 1356.38 278.11 1356.94 278.432C1357.51 278.754 1357.94 279.22 1358.25 279.831C1358.56 280.442 1358.72 281.183 1358.71 282.054V289H1356.14V282.452C1356.14 281.723 1355.95 281.152 1355.57 280.74C1355.2 280.328 1354.68 280.122 1354.02 280.122C1353.57 280.122 1353.17 280.222 1352.82 280.42C1352.47 280.615 1352.2 280.896 1352 281.266C1351.81 281.635 1351.71 282.082 1351.71 282.608ZM1366.07 293.318C1365.15 293.318 1364.35 293.193 1363.69 292.942C1363.03 292.696 1362.49 292.364 1362.09 291.947C1361.69 291.531 1361.41 291.069 1361.25 290.562L1363.57 290.001C1363.67 290.214 1363.82 290.425 1364.02 290.634C1364.22 290.847 1364.49 291.022 1364.83 291.159C1365.17 291.301 1365.6 291.372 1366.11 291.372C1366.84 291.372 1367.44 291.195 1367.92 290.839C1368.4 290.489 1368.64 289.911 1368.64 289.107V287.04H1368.51C1368.38 287.305 1368.19 287.577 1367.93 287.857C1367.68 288.136 1367.35 288.37 1366.93 288.56C1366.52 288.749 1366 288.844 1365.37 288.844C1364.54 288.844 1363.78 288.647 1363.09 288.254C1362.42 287.857 1361.88 287.265 1361.47 286.479C1361.08 285.688 1360.88 284.698 1360.88 283.51C1360.88 282.312 1361.08 281.301 1361.47 280.477C1361.88 279.649 1362.42 279.021 1363.1 278.595C1363.78 278.164 1364.54 277.949 1365.38 277.949C1366.02 277.949 1366.55 278.058 1366.96 278.276C1367.37 278.489 1367.71 278.747 1367.95 279.05C1368.2 279.348 1368.38 279.63 1368.51 279.895H1368.65V278.091H1371.19V289.178C1371.19 290.11 1370.97 290.882 1370.52 291.493C1370.08 292.104 1369.47 292.561 1368.7 292.864C1367.93 293.167 1367.05 293.318 1366.07 293.318ZM1366.09 286.827C1366.64 286.827 1367.1 286.694 1367.48 286.429C1367.87 286.164 1368.16 285.783 1368.36 285.286C1368.56 284.788 1368.65 284.192 1368.65 283.496C1368.65 282.809 1368.56 282.208 1368.36 281.692C1368.16 281.176 1367.87 280.776 1367.49 280.491C1367.11 280.203 1366.64 280.058 1366.09 280.058C1365.52 280.058 1365.04 280.207 1364.66 280.506C1364.27 280.804 1363.98 281.214 1363.79 281.734C1363.6 282.25 1363.5 282.838 1363.5 283.496C1363.5 284.163 1363.6 284.748 1363.79 285.25C1363.99 285.747 1364.28 286.135 1364.66 286.415C1365.05 286.689 1365.53 286.827 1366.09 286.827ZM1377.91 274.455H1380.88L1384.44 280.889H1384.58L1388.14 274.455H1391.12L1385.82 283.574V289H1383.2V283.574L1377.91 274.455ZM1395.6 289.213C1394.53 289.213 1393.61 288.979 1392.83 288.51C1392.04 288.041 1391.44 287.385 1391.01 286.543C1390.58 285.7 1390.37 284.715 1390.37 283.588C1390.37 282.461 1390.58 281.474 1391.01 280.626C1391.44 279.779 1392.04 279.121 1392.83 278.652C1393.61 278.183 1394.53 277.949 1395.6 277.949C1396.66 277.949 1397.58 278.183 1398.37 278.652C1399.15 279.121 1399.75 279.779 1400.18 280.626C1400.61 281.474 1400.82 282.461 1400.82 283.588C1400.82 284.715 1400.61 285.7 1400.18 286.543C1399.75 287.385 1399.15 288.041 1398.37 288.51C1397.58 288.979 1396.66 289.213 1395.6 289.213ZM1395.61 287.153C1396.19 287.153 1396.67 286.995 1397.06 286.678C1397.45 286.356 1397.74 285.925 1397.92 285.385C1398.12 284.845 1398.22 284.244 1398.22 283.581C1398.22 282.913 1398.12 282.31 1397.92 281.77C1397.74 281.225 1397.45 280.792 1397.06 280.47C1396.67 280.148 1396.19 279.987 1395.61 279.987C1395.02 279.987 1394.53 280.148 1394.13 280.47C1393.74 280.792 1393.45 281.225 1393.26 281.77C1393.07 282.31 1392.97 282.913 1392.97 283.581C1392.97 284.244 1393.07 284.845 1393.26 285.385C1393.45 285.925 1393.74 286.356 1394.13 286.678C1394.53 286.995 1395.02 287.153 1395.61 287.153ZM1409.96 284.412V278.091H1412.53V289H1410.04V287.061H1409.92C1409.68 287.672 1409.27 288.171 1408.71 288.56C1408.15 288.948 1407.46 289.142 1406.64 289.142C1405.93 289.142 1405.29 288.983 1404.74 288.666C1404.2 288.344 1403.77 287.878 1403.47 287.267C1403.16 286.652 1403 285.908 1403 285.037V278.091H1405.58V284.639C1405.58 285.33 1405.77 285.88 1406.14 286.287C1406.52 286.694 1407.02 286.898 1407.64 286.898C1408.01 286.898 1408.38 286.805 1408.74 286.621C1409.09 286.436 1409.38 286.161 1409.61 285.797C1409.84 285.428 1409.96 284.966 1409.96 284.412ZM1415.17 289V278.091H1417.67V279.909H1417.78C1417.98 279.279 1418.32 278.794 1418.8 278.453C1419.29 278.107 1419.85 277.935 1420.47 277.935C1420.61 277.935 1420.77 277.942 1420.95 277.956C1421.13 277.965 1421.28 277.982 1421.39 278.006V280.371C1421.29 280.333 1421.11 280.3 1420.88 280.271C1420.64 280.238 1420.42 280.222 1420.2 280.222C1419.73 280.222 1419.31 280.323 1418.94 280.527C1418.57 280.726 1418.28 281.003 1418.06 281.358C1417.85 281.713 1417.74 282.123 1417.74 282.587V289H1415.17ZM1428.18 289V274.455H1433.63C1434.75 274.455 1435.69 274.649 1436.44 275.037C1437.21 275.425 1437.78 275.97 1438.17 276.67C1438.56 277.366 1438.76 278.179 1438.76 279.107C1438.76 280.039 1438.56 280.849 1438.16 281.536C1437.77 282.217 1437.19 282.745 1436.42 283.119C1435.66 283.489 1434.71 283.673 1433.6 283.673H1429.71V281.486H1433.24C1433.89 281.486 1434.43 281.396 1434.85 281.216C1435.26 281.031 1435.57 280.764 1435.77 280.413C1435.97 280.058 1436.07 279.623 1436.07 279.107C1436.07 278.59 1435.97 278.15 1435.77 277.786C1435.57 277.416 1435.26 277.137 1434.84 276.947C1434.42 276.753 1433.88 276.656 1433.23 276.656H1430.81V289H1428.18ZM1435.69 282.409L1439.29 289H1436.35L1432.81 282.409H1435.69ZM1445.74 289.213C1444.65 289.213 1443.71 288.986 1442.91 288.531C1442.12 288.072 1441.51 287.423 1441.09 286.585C1440.66 285.742 1440.45 284.75 1440.45 283.609C1440.45 282.487 1440.66 281.502 1441.09 280.655C1441.52 279.803 1442.12 279.14 1442.89 278.666C1443.66 278.188 1444.57 277.949 1445.61 277.949C1446.28 277.949 1446.92 278.058 1447.51 278.276C1448.11 278.489 1448.64 278.82 1449.1 279.27C1449.57 279.72 1449.93 280.293 1450.2 280.989C1450.46 281.68 1450.6 282.504 1450.6 283.46V284.249H1441.65V282.516H1448.13C1448.13 282.023 1448.02 281.585 1447.81 281.202C1447.6 280.813 1447.31 280.508 1446.94 280.286C1446.57 280.063 1446.14 279.952 1445.64 279.952C1445.12 279.952 1444.66 280.08 1444.26 280.335C1443.86 280.586 1443.55 280.918 1443.33 281.33C1443.11 281.737 1443 282.184 1443 282.672V284.185C1443 284.819 1443.11 285.364 1443.34 285.818C1443.58 286.268 1443.9 286.614 1444.32 286.855C1444.73 287.092 1445.22 287.21 1445.78 287.21C1446.15 287.21 1446.49 287.158 1446.8 287.054C1447.1 286.945 1447.36 286.786 1447.58 286.578C1447.81 286.37 1447.97 286.112 1448.09 285.804L1450.49 286.074C1450.34 286.708 1450.05 287.262 1449.62 287.736C1449.2 288.205 1448.66 288.569 1448 288.83C1447.34 289.085 1446.59 289.213 1445.74 289.213ZM1462.2 278.091L1458.32 289H1455.48L1451.59 278.091H1454.33L1456.84 286.195H1456.95L1459.47 278.091H1462.2ZM1468.44 289.213C1467.35 289.213 1466.4 288.986 1465.61 288.531C1464.82 288.072 1464.21 287.423 1463.78 286.585C1463.35 285.742 1463.14 284.75 1463.14 283.609C1463.14 282.487 1463.35 281.502 1463.78 280.655C1464.21 279.803 1464.81 279.14 1465.58 278.666C1466.36 278.188 1467.26 277.949 1468.3 277.949C1468.98 277.949 1469.61 278.058 1470.21 278.276C1470.81 278.489 1471.34 278.82 1471.8 279.27C1472.26 279.72 1472.63 280.293 1472.89 280.989C1473.16 281.68 1473.29 282.504 1473.29 283.46V284.249H1464.35V282.516H1470.83C1470.82 282.023 1470.71 281.585 1470.51 281.202C1470.3 280.813 1470.01 280.508 1469.63 280.286C1469.26 280.063 1468.83 279.952 1468.34 279.952C1467.81 279.952 1467.35 280.08 1466.96 280.335C1466.56 280.586 1466.25 280.918 1466.02 281.33C1465.81 281.737 1465.7 282.184 1465.69 282.672V284.185C1465.69 284.819 1465.81 285.364 1466.04 285.818C1466.27 286.268 1466.6 286.614 1467.01 286.855C1467.43 287.092 1467.92 287.21 1468.48 287.21C1468.85 287.21 1469.19 287.158 1469.49 287.054C1469.79 286.945 1470.06 286.786 1470.28 286.578C1470.5 286.37 1470.67 286.112 1470.78 285.804L1473.18 286.074C1473.03 286.708 1472.74 287.262 1472.32 287.736C1471.9 288.205 1471.36 288.569 1470.7 288.83C1470.04 289.085 1469.29 289.213 1468.44 289.213ZM1478.04 282.608V289H1475.47V278.091H1477.92V279.945H1478.05C1478.3 279.334 1478.7 278.848 1479.25 278.489C1479.81 278.129 1480.49 277.949 1481.3 277.949C1482.06 277.949 1482.71 278.11 1483.27 278.432C1483.83 278.754 1484.27 279.22 1484.58 279.831C1484.89 280.442 1485.04 281.183 1485.04 282.054V289H1482.47V282.452C1482.47 281.723 1482.28 281.152 1481.9 280.74C1481.53 280.328 1481.01 280.122 1480.34 280.122C1479.9 280.122 1479.49 280.222 1479.14 280.42C1478.8 280.615 1478.53 280.896 1478.33 281.266C1478.13 281.635 1478.04 282.082 1478.04 282.608ZM1494.61 284.412V278.091H1497.18V289H1494.68V287.061H1494.57C1494.32 287.672 1493.92 288.171 1493.36 288.56C1492.8 288.948 1492.11 289.142 1491.29 289.142C1490.57 289.142 1489.94 288.983 1489.39 288.666C1488.85 288.344 1488.42 287.878 1488.11 287.267C1487.81 286.652 1487.65 285.908 1487.65 285.037V278.091H1490.22V284.639C1490.22 285.33 1490.41 285.88 1490.79 286.287C1491.17 286.694 1491.67 286.898 1492.28 286.898C1492.66 286.898 1493.03 286.805 1493.38 286.621C1493.74 286.436 1494.03 286.161 1494.26 285.797C1494.49 285.428 1494.61 284.966 1494.61 284.412ZM1504.65 289.213C1503.56 289.213 1502.61 288.986 1501.82 288.531C1501.03 288.072 1500.42 287.423 1499.99 286.585C1499.57 285.742 1499.35 284.75 1499.35 283.609C1499.35 282.487 1499.57 281.502 1499.99 280.655C1500.42 279.803 1501.02 279.14 1501.8 278.666C1502.57 278.188 1503.47 277.949 1504.52 277.949C1505.19 277.949 1505.82 278.058 1506.42 278.276C1507.02 278.489 1507.55 278.82 1508.01 279.27C1508.47 279.72 1508.84 280.293 1509.1 280.989C1509.37 281.68 1509.5 282.504 1509.5 283.46V284.249H1500.56V282.516H1507.04C1507.03 282.023 1506.93 281.585 1506.72 281.202C1506.51 280.813 1506.22 280.508 1505.84 280.286C1505.47 280.063 1505.04 279.952 1504.55 279.952C1504.03 279.952 1503.56 280.08 1503.17 280.335C1502.77 280.586 1502.46 280.918 1502.24 281.33C1502.02 281.737 1501.91 282.184 1501.9 282.672V284.185C1501.9 284.819 1502.02 285.364 1502.25 285.818C1502.48 286.268 1502.81 286.614 1503.22 286.855C1503.64 287.092 1504.13 287.21 1504.69 287.21C1505.06 287.21 1505.4 287.158 1505.7 287.054C1506 286.945 1506.27 286.786 1506.49 286.578C1506.71 286.37 1506.88 286.112 1506.99 285.804L1509.39 286.074C1509.24 286.708 1508.95 287.262 1508.53 287.736C1508.11 288.205 1507.57 288.569 1506.91 288.83C1506.25 289.085 1505.5 289.213 1504.65 289.213Z" fill="black"/>
<defs>
<filter id="filter0_d_511_903" x="49" y="0" width="258" height="258" filterUnits="userSpaceOnUse" color-interpolation-filters="sRGB">
<feFlood flood-opacity="0" result="BackgroundImageFix"/>
<feColorMatrix in="SourceAlpha" type="matrix" values="0 0 0 0 0 0 0 0 0 0 0 0 0 0 0 0 0 0 127 0" result="hardAlpha"/>
<feOffset dy="4"/>
<feGaussianBlur stdDeviation="2"/>
<feComposite in2="hardAlpha" operator="out"/>
<feColorMatrix type="matrix" values="0 0 0 0 0 0 0 0 0 0 0 0 0 0 0 0 0 0 0.25 0"/>
<feBlend mode="normal" in2="BackgroundImageFix" result="effect1_dropShadow_511_903"/>
<feBlend mode="normal" in="SourceGraphic" in2="effect1_dropShadow_511_903" result="shape"/>
</filter>
<filter id="filter1_d_511_903" x="638" y="0" width="308" height="258" filterUnits="userSpaceOnUse" color-interpolation-filters="sRGB">
<feFlood flood-opacity="0" result="BackgroundImageFix"/>
<feColorMatrix in="SourceAlpha" type="matrix" values="0 0 0 0 0 0 0 0 0 0 0 0 0 0 0 0 0 0 127 0" result="hardAlpha"/>
<feOffset dy="4"/>
<feGaussianBlur stdDeviation="2"/>
<feComposite in2="hardAlpha" operator="out"/>
<feColorMatrix type="matrix" values="0 0 0 0 0 0 0 0 0 0 0 0 0 0 0 0 0 0 0.25 0"/>
<feBlend mode="normal" in2="BackgroundImageFix" result="effect1_dropShadow_511_903"/>
<feBlend mode="normal" in="SourceGraphic" in2="effect1_dropShadow_511_903" result="shape"/>
</filter>
<filter id="filter2_d_511_903" x="1267" y="0" width="258" height="258" filterUnits="userSpaceOnUse" color-interpolation-filters="sRGB">
<feFlood flood-opacity="0" result="BackgroundImageFix"/>
<feColorMatrix in="SourceAlpha" type="matrix" values="0 0 0 0 0 0 0 0 0 0 0 0 0 0 0 0 0 0 127 0" result="hardAlpha"/>
<feOffset dy="4"/>
<feGaussianBlur stdDeviation="2"/>
<feComposite in2="hardAlpha" operator="out"/>
<feColorMatrix type="matrix" values="0 0 0 0 0 0 0 0 0 0 0 0 0 0 0 0 0 0 0.25 0"/>
<feBlend mode="normal" in2="BackgroundImageFix" result="effect1_dropShadow_511_903"/>
<feBlend mode="normal" in="SourceGraphic" in2="effect1_dropShadow_511_903" result="shape"/>
</filter>
</defs>
</svg>
