<svg width="475" height="189" viewBox="0 0 475 189" fill="none" xmlns="http://www.w3.org/2000/svg">
<rect width="475" height="189" fill="white"/>
<g clip-path="url(#clip0_540_985)">
<path d="M78.8824 49.8694C79.9733 49.868 79.9733 49.868 81.0862 49.8666C82.6172 49.8659 84.1483 49.8677 85.6794 49.8718C88.0034 49.8771 90.3273 49.8719 92.6513 49.8656C94.1467 49.8662 95.642 49.8675 97.1373 49.8694C98.1656 49.8664 98.1656 49.8664 99.2147 49.8634C111.452 49.9209 111.452 49.9209 116.147 52.6123C118.882 54.4761 121.338 56.5984 123.757 58.8509C124.182 59.2456 124.607 59.6403 125.044 60.047C135.241 69.6237 135.241 69.6237 137.548 74.9948C139.022 79.8935 139.151 84.3751 139.148 89.485C139.15 90.3134 139.152 91.1418 139.154 91.9702C139.158 93.7015 139.158 95.4327 139.155 97.164C139.152 99.3677 139.161 101.571 139.172 103.775C139.179 105.485 139.18 107.194 139.178 108.904C139.179 110.107 139.185 111.31 139.192 112.512C139.17 117.933 138.63 122.596 136.265 127.506C134.215 130.997 131.609 133.865 128.15 135.994C124.212 138.029 120.706 139.118 116.242 139.151C115.437 139.159 114.633 139.166 113.804 139.175C112.931 139.178 112.058 139.18 111.186 139.183C110.281 139.187 109.376 139.191 108.472 139.196C106.577 139.204 104.682 139.208 102.787 139.209C100.376 139.212 97.9651 139.23 95.5542 139.253C93.6849 139.268 91.8157 139.271 89.9463 139.272C89.0586 139.274 88.1708 139.28 87.2831 139.29C81.8543 139.348 77.0837 138.956 72.1271 136.541C68.4065 134.207 65.3777 130.94 62.2929 127.844C61.834 127.393 61.3751 126.942 60.9023 126.478C56.4466 122.025 52.4575 117.525 50.4918 111.464C50.0132 109.169 49.9297 106.966 49.913 104.624C49.9067 103.848 49.9004 103.071 49.8939 102.271C49.8899 101.427 49.8862 100.582 49.8829 99.7379C49.8809 99.3092 49.8789 98.8805 49.8768 98.4388C49.8666 96.1678 49.8596 93.8968 49.8549 91.6258C49.8495 89.2959 49.8326 86.9662 49.8131 84.6363C49.8001 82.8312 49.7961 81.026 49.7943 79.2208C49.7919 78.3628 49.7863 77.5049 49.7771 76.6469C49.7261 71.5735 49.9275 66.9983 51.9669 62.2929C54.2102 58.3198 57.1632 55.0206 61.1116 52.6872C66.7606 49.8993 72.6968 49.8516 78.8824 49.8694ZM74.4013 73.2027C72.4158 75.3301 71.0851 77.7118 70.1603 80.4862C70.1083 81.7091 70.0871 82.9332 70.0811 84.1572C70.0763 84.9221 70.0716 85.687 70.0667 86.475C70.0644 87.3132 70.0623 88.1513 70.0604 88.9894C70.0576 89.8488 70.0548 90.7082 70.0519 91.5676C70.0468 93.371 70.0439 95.1745 70.0422 96.9779C70.0395 99.2822 70.0277 101.586 70.0137 103.89C70.0045 105.667 70.0019 107.443 70.0012 109.22C69.9997 110.069 69.9958 110.918 69.9893 111.767C69.9809 112.959 69.9827 114.151 69.985 115.342C69.9832 116.019 69.9814 116.696 69.9796 117.394C70.1835 119.581 70.7484 121.261 71.6354 123.265C73.4839 125.786 75.2147 127.318 78.0277 128.674C80.3098 129.578 82.2238 129.784 84.6731 129.793C85.4068 129.797 86.1405 129.802 86.8964 129.807C88.0789 129.806 88.0789 129.806 89.2852 129.805C90.1083 129.807 90.9313 129.809 91.7543 129.812C93.4775 129.815 95.2006 129.815 96.9237 129.813C99.1226 129.81 101.321 129.818 103.52 129.83C105.22 129.837 106.919 129.837 108.619 129.836C109.821 129.836 111.023 129.843 112.225 129.85C116.058 129.834 119.244 129.733 122.774 128.182C125.085 126.795 126.558 124.967 128.031 122.725C129.832 118.959 129.52 114.889 129.492 110.803C129.494 109.929 129.496 109.055 129.499 108.181C129.503 106.356 129.498 104.531 129.486 102.706C129.472 100.378 129.48 98.0506 129.495 95.7227C129.504 93.9196 129.501 92.1167 129.495 90.3137C129.493 89.4559 129.495 88.598 129.501 87.7402C129.589 82.2519 129.589 82.2519 128.012 77.0759C126.387 74.5873 124.862 72.9378 122.188 71.58C118.009 69.8753 114.026 69.8754 109.559 69.899C108.772 69.8972 107.984 69.8953 107.173 69.8933C105.515 69.8905 103.857 69.8946 102.199 69.9038C100.088 69.9151 97.9776 69.9086 95.8664 69.8968C93.8333 69.888 91.8004 69.8942 89.7673 69.899C89.0163 69.8951 88.2653 69.8911 87.4915 69.887C82.5533 69.9301 78.5865 70.4901 74.4013 73.2027Z" fill="black"/>
<rect x="69.6685" y="69.6685" width="59.989" height="60.4807" rx="17" fill="white"/>
<path d="M87.5156 114.668V85.5775H93.6661V97.5804H106.152V85.5775H112.288V114.668H106.152V102.651H93.6661V114.668H87.5156Z" fill="black"/>
</g>
<path d="M157.587 113V76.6364H164.174V92.0305H181.024V76.6364H187.629V113H181.024V97.5526H164.174V113H157.587ZM206.406 113.533C203.743 113.533 201.434 112.947 199.481 111.775C197.528 110.603 196.013 108.964 194.936 106.857C193.87 104.75 193.338 102.287 193.338 99.4702C193.338 96.6529 193.87 94.1849 194.936 92.0661C196.013 89.9472 197.528 88.3018 199.481 87.13C201.434 85.9581 203.743 85.3722 206.406 85.3722C209.069 85.3722 211.377 85.9581 213.331 87.13C215.284 88.3018 216.793 89.9472 217.858 92.0661C218.935 94.1849 219.474 96.6529 219.474 99.4702C219.474 102.287 218.935 104.75 217.858 106.857C216.793 108.964 215.284 110.603 213.331 111.775C211.377 112.947 209.069 113.533 206.406 113.533ZM206.441 108.384C207.886 108.384 209.093 107.987 210.064 107.194C211.034 106.389 211.756 105.312 212.23 103.962C212.715 102.613 212.958 101.11 212.958 99.4524C212.958 97.7834 212.715 96.2741 212.23 94.9247C211.756 93.5634 211.034 92.4804 210.064 91.6754C209.093 90.8705 207.886 90.468 206.441 90.468C204.962 90.468 203.731 90.8705 202.748 91.6754C201.778 92.4804 201.05 93.5634 200.564 94.9247C200.091 96.2741 199.854 97.7834 199.854 99.4524C199.854 101.11 200.091 102.613 200.564 103.962C201.05 105.312 201.778 106.389 202.748 107.194C203.731 107.987 204.962 108.384 206.441 108.384ZM229.777 113L222.071 85.7273H228.623L233.417 104.903H233.665L238.566 85.7273H245.047L249.947 104.797H250.214L254.937 85.7273H261.506L253.782 113H247.089L241.975 94.5696H241.602L236.488 113H229.777ZM292.015 85.7273V90.6989H276.337V85.7273H292.015ZM280.207 79.1932H286.635V104.797C286.635 105.661 286.765 106.324 287.026 106.786C287.298 107.235 287.653 107.543 288.091 107.709C288.529 107.875 289.014 107.957 289.547 107.957C289.949 107.957 290.316 107.928 290.648 107.869C290.991 107.809 291.251 107.756 291.429 107.709L292.512 112.734C292.169 112.852 291.678 112.982 291.038 113.124C290.411 113.266 289.642 113.349 288.73 113.373C287.12 113.42 285.67 113.178 284.38 112.645C283.09 112.1 282.066 111.26 281.308 110.124C280.563 108.987 280.196 107.567 280.207 105.862V79.1932ZM308.994 113.533C306.33 113.533 304.022 112.947 302.069 111.775C300.116 110.603 298.601 108.964 297.524 106.857C296.458 104.75 295.926 102.287 295.926 99.4702C295.926 96.6529 296.458 94.1849 297.524 92.0661C298.601 89.9472 300.116 88.3018 302.069 87.13C304.022 85.9581 306.33 85.3722 308.994 85.3722C311.657 85.3722 313.965 85.9581 315.919 87.13C317.872 88.3018 319.381 89.9472 320.446 92.0661C321.523 94.1849 322.062 96.6529 322.062 99.4702C322.062 102.287 321.523 104.75 320.446 106.857C319.381 108.964 317.872 110.603 315.919 111.775C313.965 112.947 311.657 113.533 308.994 113.533ZM309.029 108.384C310.473 108.384 311.681 107.987 312.651 107.194C313.622 106.389 314.344 105.312 314.818 103.962C315.303 102.613 315.546 101.11 315.546 99.4524C315.546 97.7834 315.303 96.2741 314.818 94.9247C314.344 93.5634 313.622 92.4804 312.651 91.6754C311.681 90.8705 310.473 90.468 309.029 90.468C307.55 90.468 306.319 90.8705 305.336 91.6754C304.365 92.4804 303.637 93.5634 303.152 94.9247C302.679 96.2741 302.442 97.7834 302.442 99.4524C302.442 101.11 302.679 102.613 303.152 103.962C303.637 105.312 304.365 106.389 305.336 107.194C306.319 107.987 307.55 108.384 309.029 108.384ZM359.966 86.6328C359.8 85.0821 359.102 83.8748 357.871 83.0107C356.652 82.1465 355.065 81.7145 353.112 81.7145C351.739 81.7145 350.561 81.9216 349.579 82.3359C348.596 82.7502 347.845 83.3125 347.324 84.0227C346.803 84.733 346.537 85.5438 346.525 86.4553C346.525 87.2128 346.696 87.8698 347.04 88.4261C347.395 88.9825 347.874 89.456 348.478 89.8466C349.082 90.2254 349.75 90.545 350.484 90.8054C351.218 91.0658 351.958 91.2848 352.704 91.4624L356.113 92.3146C357.486 92.6342 358.806 93.0663 360.072 93.6108C361.351 94.1553 362.493 94.8419 363.499 95.6705C364.517 96.4991 365.322 97.4993 365.914 98.6712C366.506 99.843 366.802 101.216 366.802 102.79C366.802 104.921 366.257 106.797 365.168 108.419C364.079 110.029 362.505 111.29 360.445 112.201C358.397 113.101 355.918 113.55 353.006 113.55C350.177 113.55 347.72 113.112 345.637 112.237C343.566 111.361 341.944 110.082 340.772 108.401C339.612 106.72 338.985 104.673 338.89 102.258H345.371C345.465 103.524 345.856 104.578 346.543 105.418C347.229 106.259 348.123 106.886 349.224 107.3C350.336 107.715 351.579 107.922 352.952 107.922C354.385 107.922 355.639 107.709 356.717 107.283C357.806 106.845 358.658 106.241 359.273 105.472C359.889 104.69 360.203 103.779 360.214 102.737C360.203 101.79 359.924 101.009 359.38 100.393C358.835 99.7661 358.072 99.2453 357.089 98.831C356.119 98.4048 354.982 98.026 353.68 97.6946L349.543 96.6293C346.549 95.8598 344.181 94.6939 342.441 93.1314C340.713 91.5571 339.849 89.4678 339.849 86.8636C339.849 84.7211 340.429 82.8449 341.589 81.2351C342.761 79.6252 344.353 78.3764 346.365 77.4886C348.377 76.589 350.656 76.1392 353.201 76.1392C355.781 76.1392 358.042 76.589 359.984 77.4886C361.937 78.3764 363.47 79.6134 364.582 81.1996C365.695 82.7739 366.269 84.585 366.305 86.6328H359.966ZM384.464 113.533C381.73 113.533 379.368 112.964 377.38 111.828C375.403 110.68 373.882 109.058 372.817 106.963C371.751 104.856 371.219 102.376 371.219 99.5234C371.219 96.718 371.751 94.2559 372.817 92.1371C373.894 90.0064 375.397 88.3492 377.327 87.1655C379.256 85.9699 381.523 85.3722 384.127 85.3722C385.808 85.3722 387.394 85.6444 388.885 86.1889C390.389 86.7216 391.715 87.5502 392.863 88.6747C394.023 89.7992 394.934 91.2315 395.597 92.9716C396.26 94.6998 396.591 96.7595 396.591 99.1506V101.121H374.237V96.7891H390.43C390.418 95.558 390.152 94.4631 389.631 93.5043C389.11 92.5336 388.382 91.7701 387.447 91.2138C386.524 90.6574 385.447 90.3793 384.216 90.3793C382.902 90.3793 381.748 90.6989 380.753 91.3381C379.759 91.9654 378.984 92.794 378.427 93.8239C377.883 94.8419 377.605 95.9605 377.593 97.1797V100.962C377.593 102.548 377.883 103.909 378.463 105.045C379.043 106.17 379.854 107.034 380.895 107.638C381.937 108.23 383.156 108.526 384.553 108.526C385.488 108.526 386.335 108.395 387.092 108.135C387.85 107.863 388.507 107.466 389.063 106.945C389.619 106.424 390.04 105.779 390.324 105.01L396.325 105.685C395.946 107.271 395.224 108.656 394.159 109.839C393.105 111.011 391.756 111.923 390.111 112.574C388.465 113.213 386.583 113.533 384.464 113.533ZM408.457 76.6364V113H402.029V76.6364H408.457ZM421.494 76.6364V113H415.066V76.6364H421.494Z" fill="black"/>
<defs>
<clipPath id="clip0_540_985">
<rect width="89" height="89" fill="white" transform="translate(50 50)"/>
</clipPath>
</defs>
</svg>
