<svg width="381" height="5" viewBox="0 0 381 5" fill="none" xmlns="http://www.w3.org/2000/svg">
<mask id="mask0_525_13" style="mask-type:luminance" maskUnits="userSpaceOnUse" x="0" y="0" width="381" height="5">
<path d="M381 0H0V5H381V0Z" fill="white"/>
</mask>
<g mask="url(#mask0_525_13)">
<path d="M111.109 -0.0694653C112.716 -0.0716222 112.716 -0.0716222 114.356 -0.0738226C126.787 -0.0870915 139.213 -0.0186092 151.642 0.12856C180.107 0.461168 208.559 0.604183 237.027 0.590257C238.336 0.589673 238.336 0.589673 239.673 0.589078C252.195 0.583277 264.719 0.571622 277.241 0.558425C290.042 0.544953 302.843 0.532351 315.644 0.525858C320.748 0.523105 325.854 0.517658 330.959 0.510063C334.093 0.505937 337.227 0.504082 340.362 0.50286C341.815 0.501817 343.268 0.499811 344.721 0.496786C346.696 0.4928 348.67 0.4922 350.646 0.492465C351.751 0.491231 352.856 0.489998 353.993 0.488727C356.616 0.555535 356.616 0.555535 358.902 1.11109C361.349 1.2264 363.787 1.31889 366.236 1.38887C376.182 1.68063 376.182 1.68063 381 2.2222C381 2.58887 381 2.95553 381 3.33331C374.587 4.2286 367.733 3.9719 361.228 3.97303C359.678 3.97656 359.678 3.97656 358.096 3.98015C354.652 3.98735 351.206 3.99073 347.761 3.99412C345.281 3.99854 342.801 4.0032 340.322 4.00808C334.983 4.01825 329.644 4.02651 324.306 4.03351C316.537 4.04375 308.77 4.05745 301.001 4.07205C288.329 4.09582 275.658 4.11754 262.986 4.13762C262.229 4.13882 261.471 4.14002 260.69 4.14126C256.858 4.14733 253.025 4.15338 249.194 4.15941C241.599 4.17137 234.006 4.18345 226.413 4.19567C225.668 4.19687 224.923 4.19807 224.154 4.19931C211.571 4.21961 198.99 4.24183 186.407 4.26528C179.375 4.27831 172.342 4.29034 165.312 4.29978C134.807 4.34099 104.312 4.473 73.8126 4.90976C64.3931 5.04227 54.9735 5.10344 45.5522 5.10292C42.9122 5.10421 40.2726 5.11464 37.6327 5.12476C35.8913 5.12638 34.1501 5.12749 32.4088 5.12802C31.6493 5.13201 30.8899 5.136 30.1075 5.14011C25.4814 5.12915 21.1163 4.77696 16.5684 4.15603C12.6235 3.65186 8.62566 3.4721 4.63302 3.26495C2.77117 3.14451 2.77117 3.14451 0 2.77776C0.25146 2.22776 0.50292 1.67776 0.762 1.11109C5.19576 0.570187 9.60007 0.477053 14.0884 0.441467C15.3452 0.430392 16.6021 0.419317 17.8969 0.407906C19.2676 0.398433 20.6382 0.389052 22.0088 0.379753C23.4564 0.368208 24.9041 0.356491 26.3517 0.344616C30.2496 0.313508 34.1474 0.285997 38.0452 0.259629C40.4921 0.242961 42.939 0.225539 45.3859 0.207939C67.2935 0.0516215 89.2006 -0.0567895 111.109 -0.0694653Z" fill="black"/>
<path d="M220.98 0.555573C222.69 0.498971 224.402 0.485386 226.114 0.485026C227.252 0.48346 228.39 0.481893 229.562 0.480279C230.839 0.48136 232.117 0.482497 233.394 0.483687C234.727 0.482935 236.06 0.481946 237.393 0.480737C241.026 0.478192 244.66 0.479191 248.293 0.480948C252.087 0.482349 255.882 0.481051 259.676 0.480177C266.053 0.479165 272.429 0.480503 278.804 0.483144C286.182 0.486165 293.561 0.485191 300.939 0.48213C307.263 0.479611 313.587 0.479252 319.91 0.480707C323.691 0.481574 327.473 0.481685 331.255 0.479853C334.813 0.478251 338.369 0.479356 341.926 0.482572C343.233 0.483308 344.542 0.483093 345.849 0.481871C347.629 0.480359 349.411 0.482588 351.191 0.485026C352.19 0.485236 353.188 0.485445 354.217 0.485661C356.616 0.555573 356.616 0.555573 358.902 1.11113C362.191 1.23852 365.477 1.33061 368.77 1.39867C370.563 1.44912 372.353 1.55356 374.142 1.66668C374.394 2.03335 374.645 2.40002 374.904 2.77779C372.464 2.89512 370.087 2.93282 367.644 2.92536C366.899 2.92643 366.154 2.92749 365.386 2.92859C363.803 2.92934 362.219 2.92727 360.637 2.92265C358.201 2.91672 355.766 2.92258 353.331 2.9297C351.8 2.92897 350.268 2.92755 348.737 2.92536C348.002 2.92761 347.265 2.92986 346.507 2.93218C344.795 2.92328 343.084 2.85729 341.376 2.77779C341.376 2.41113 341.376 2.04446 341.376 1.66668C339.365 1.48956 339.365 1.48956 336.805 1.51572C335.793 1.51032 334.779 1.50492 333.736 1.49935C332.61 1.49903 331.484 1.4987 330.324 1.49836C329.15 1.49367 327.976 1.48899 326.766 1.48415C324.204 1.47471 321.642 1.4673 319.08 1.4633C315.033 1.45695 310.988 1.44282 306.942 1.42757C300.545 1.40439 294.149 1.3864 287.754 1.37064C276.293 1.34235 264.832 1.30789 253.371 1.26767C249.343 1.25378 245.316 1.24301 241.288 1.23468C238.203 1.22771 235.118 1.21732 232.032 1.20756C230.906 1.20611 229.78 1.20466 228.62 1.20316C227.607 1.19933 226.594 1.1955 225.551 1.19155C224.663 1.18941 223.774 1.18727 222.861 1.18506C222.239 1.16066 221.619 1.13627 220.98 1.11113C220.98 0.927795 220.98 0.744462 220.98 0.555573Z" fill="black"/>
<path d="M339.852 0.555562C342.598 0.540607 345.345 0.529562 348.091 0.52084C348.871 0.516185 349.652 0.51153 350.456 0.506734C351.579 0.504049 351.579 0.504049 352.725 0.501309C353.416 0.4984 354.106 0.49549 354.817 0.492493C356.616 0.555562 356.616 0.555562 358.902 1.11112C362.191 1.23851 365.477 1.3306 368.77 1.39866C370.563 1.44911 372.353 1.55355 374.142 1.66667C374.519 2.21667 374.519 2.21667 374.904 2.77778C372.462 2.90231 370.088 2.94656 367.644 2.94489C366.899 2.94727 366.154 2.94965 365.386 2.9521C363.803 2.9553 362.219 2.95556 360.637 2.95316C358.201 2.95141 355.766 2.96441 353.331 2.97852C351.8 2.97979 350.268 2.98018 348.737 2.97961C348.002 2.98472 347.265 2.98984 346.507 2.99511C344.466 2.98463 344.466 2.98463 341.376 2.77778C341.376 2.22778 341.376 1.67778 341.376 1.11112C340.873 0.927785 340.37 0.744451 339.852 0.555562Z" fill="black"/>
<path d="M10.668 0.55554C10.668 0.922207 10.668 1.28888 10.668 1.66665C9.91362 1.94165 9.91362 1.94165 9.144 2.22221C9.64692 2.58888 10.1498 2.95554 10.668 3.33332C3.16056 3.42769 3.16056 3.42769 0 2.77776C0.25146 2.22776 0.50292 1.67776 0.762 1.1111C4.10154 0.722942 7.28762 0.55554 10.668 0.55554Z" fill="black"/>
<path d="M348.996 0.555546C355.589 0.305858 355.589 0.305858 358.902 1.1111C358.902 1.47777 358.902 1.84443 358.902 2.22221C356.735 2.38931 356.735 2.38931 353.949 2.39582C353.03 2.40513 352.111 2.41444 351.163 2.42404C350.448 2.35743 349.733 2.29083 348.996 2.22221C348.996 1.67221 348.996 1.12221 348.996 0.555546Z" fill="black"/>
<path d="M342.9 0.55554C345.996 0.347207 345.996 0.347207 348.996 0.55554C348.996 1.10554 348.996 1.65554 348.996 2.22221C345.519 2.43054 345.519 2.43054 342.138 2.22221C342.39 1.67221 342.641 1.12221 342.9 0.55554Z" fill="black"/>
</g>
</svg>
