<svg width="269" height="5" viewBox="0 0 269 5" fill="none" xmlns="http://www.w3.org/2000/svg">
<g clip-path="url(#clip0_543_1014)">
<path d="M78.4471 -0.0694653C79.5817 -0.0716222 79.5817 -0.0716222 80.7393 -0.0738226C89.5162 -0.0870915 98.2895 -0.0186092 107.065 0.12856C127.162 0.461168 147.25 0.604183 167.35 0.590257C168.274 0.589673 168.274 0.589673 169.218 0.589078C178.059 0.583277 186.901 0.571622 195.742 0.558425C204.78 0.544953 213.818 0.532351 222.856 0.525858C226.46 0.523105 230.065 0.517658 233.669 0.510063C235.882 0.505937 238.095 0.504082 240.308 0.50286C241.334 0.501817 242.36 0.499811 243.386 0.496786C244.78 0.4928 246.174 0.4922 247.569 0.492465C248.349 0.491231 249.129 0.489998 249.932 0.488727C251.784 0.555535 251.784 0.555535 253.398 1.11109C255.126 1.2264 256.847 1.31889 258.576 1.38887C265.598 1.68063 265.598 1.68063 269 2.2222C269 2.58887 269 2.95553 269 3.33331C264.472 4.2286 259.633 3.9719 255.04 3.97303C253.946 3.97656 253.946 3.97656 252.829 3.98015C250.397 3.98735 247.964 3.99073 245.532 3.99412C243.781 3.99854 242.03 4.0032 240.28 4.00808C236.51 4.01825 232.741 4.02651 228.972 4.03351C223.487 4.04375 218.003 4.05745 212.518 4.07205C203.571 4.09582 194.625 4.11754 185.678 4.13762C185.143 4.13882 184.608 4.14002 184.057 4.14126C181.351 4.14733 178.645 4.15338 175.94 4.15941C170.578 4.17137 165.217 4.18345 159.856 4.19567C159.33 4.19687 158.804 4.19807 158.261 4.19931C149.377 4.21961 140.494 4.24183 131.61 4.26528C126.645 4.27831 121.68 4.29034 116.716 4.29978C95.1784 4.34099 73.6481 4.473 52.1144 4.90976C45.4639 5.04227 38.8133 5.10344 32.1615 5.10292C30.2976 5.10421 28.4339 5.11464 26.5701 5.12476C25.3406 5.12638 24.1112 5.12749 22.8818 5.12802C22.3456 5.13201 21.8094 5.136 21.257 5.14011C17.9908 5.12915 14.9089 4.77696 11.6979 4.15603C8.91265 3.65186 6.09003 3.4721 3.27108 3.26495C1.95655 3.14451 1.95655 3.14451 0 2.77776C0.17754 2.22776 0.35508 1.67776 0.538 1.11109C3.6684 0.570187 6.778 0.477053 9.94696 0.441467C10.8343 0.430392 11.7217 0.419317 12.6359 0.407906C13.6036 0.398433 14.5713 0.389052 15.539 0.379753C16.5611 0.368208 17.5832 0.356491 18.6053 0.344616C21.3573 0.313508 24.1093 0.285997 26.8613 0.259629C28.5889 0.242961 30.3165 0.225539 32.0441 0.207939C47.5117 0.0516215 62.9789 -0.0567895 78.4471 -0.0694653Z" fill="#ECC044"/>
<path d="M156.02 0.555573C157.227 0.498971 158.436 0.485386 159.645 0.485026C160.448 0.48346 161.252 0.481893 162.079 0.480279C162.981 0.48136 163.883 0.482497 164.785 0.483687C165.726 0.482935 166.667 0.481946 167.608 0.480737C170.173 0.478192 172.739 0.479191 175.304 0.480948C177.983 0.482349 180.662 0.481051 183.341 0.480177C187.843 0.479165 192.345 0.480503 196.846 0.483144C202.055 0.486165 207.265 0.485191 212.474 0.48213C216.939 0.479611 221.404 0.479252 225.868 0.480707C228.538 0.481574 231.208 0.481685 233.878 0.479853C236.39 0.478251 238.901 0.479356 241.412 0.482572C242.335 0.483308 243.259 0.483093 244.182 0.481871C245.439 0.480359 246.697 0.482588 247.954 0.485026C248.659 0.485236 249.364 0.485445 250.09 0.485661C251.784 0.555573 251.784 0.555573 253.398 1.11113C255.72 1.23852 258.04 1.33061 260.365 1.39867C261.631 1.44912 262.895 1.55356 264.158 1.66668C264.336 2.03335 264.513 2.40002 264.696 2.77779C262.973 2.89512 261.295 2.93282 259.57 2.92536C259.044 2.92643 258.518 2.92749 257.976 2.92859C256.858 2.92934 255.74 2.92727 254.623 2.92265C252.903 2.91672 251.184 2.92258 249.465 2.9297C248.384 2.92897 247.302 2.92755 246.221 2.92536C245.702 2.92761 245.182 2.92986 244.647 2.93218C243.438 2.92328 242.23 2.85729 241.024 2.77779C241.024 2.41113 241.024 2.04446 241.024 1.66668C239.604 1.48956 239.604 1.48956 237.797 1.51572C237.082 1.51032 236.366 1.50492 235.63 1.49935C234.835 1.49903 234.04 1.4987 233.221 1.49836C232.392 1.49367 231.563 1.48899 230.709 1.48415C228.9 1.47471 227.091 1.4673 225.282 1.4633C222.425 1.45695 219.569 1.44282 216.712 1.42757C212.196 1.40439 207.68 1.3864 203.165 1.37064C195.073 1.34235 186.981 1.30789 178.889 1.26767C176.045 1.25378 173.202 1.24301 170.358 1.23468C168.18 1.22771 166.002 1.21732 163.823 1.20756C163.028 1.20611 162.233 1.20466 161.414 1.20316C160.699 1.19933 159.984 1.1955 159.247 1.19155C158.62 1.18941 157.993 1.18727 157.348 1.18506C156.909 1.16066 156.471 1.13627 156.02 1.11113C156.02 0.927795 156.02 0.744462 156.02 0.555573Z" fill="#ECC044"/>
<path d="M239.948 0.555562C241.887 0.540607 243.826 0.529562 245.765 0.52084C246.316 0.516185 246.867 0.51153 247.435 0.506734C248.228 0.504049 248.228 0.504049 249.037 0.501309C249.525 0.4984 250.012 0.49549 250.514 0.492493C251.784 0.555562 251.784 0.555562 253.398 1.11112C255.72 1.23851 258.04 1.3306 260.365 1.39866C261.631 1.44911 262.895 1.55355 264.158 1.66667C264.424 2.21667 264.424 2.21667 264.696 2.77778C262.972 2.90231 261.296 2.94656 259.57 2.94489C259.044 2.94727 258.518 2.94965 257.976 2.9521C256.858 2.9553 255.74 2.95556 254.623 2.95316C252.903 2.95141 251.184 2.96441 249.465 2.97852C248.384 2.97979 247.302 2.98018 246.221 2.97961C245.702 2.98472 245.182 2.98984 244.647 2.99511C243.206 2.98463 243.206 2.98463 241.024 2.77778C241.024 2.22778 241.024 1.67778 241.024 1.11112C240.669 0.927785 240.314 0.744451 239.948 0.555562Z" fill="#ECC044"/>
<path d="M7.532 0.555542C7.532 0.922209 7.532 1.28888 7.532 1.66665C6.99938 1.94165 6.99938 1.94165 6.456 2.22221C6.81108 2.58888 7.16616 2.95554 7.532 3.33332C2.23147 3.42769 2.23147 3.42769 0 2.77776C0.17754 2.22776 0.35508 1.67776 0.538 1.1111C2.89584 0.722944 5.14533 0.555542 7.532 0.555542Z" fill="#ECC044"/>
<path d="M246.404 0.555546C251.059 0.305858 251.059 0.305858 253.398 1.1111C253.398 1.47777 253.398 1.84443 253.398 2.22221C251.868 2.38931 251.868 2.38931 249.901 2.39582C249.252 2.40513 248.603 2.41444 247.934 2.42404C247.429 2.35743 246.924 2.29083 246.404 2.22221C246.404 1.67221 246.404 1.12221 246.404 0.555546Z" fill="#ECC044"/>
<path d="M242.1 0.555542C244.286 0.347209 244.286 0.347209 246.404 0.555542C246.404 1.10554 246.404 1.65554 246.404 2.22221C243.949 2.43054 243.949 2.43054 241.562 2.22221C241.74 1.67221 241.917 1.12221 242.1 0.555542Z" fill="#ECC044"/>
</g>
<defs>
<clipPath id="clip0_543_1014">
<rect width="269" height="5" fill="white"/>
</clipPath>
</defs>
</svg>
